%TF.GenerationSoftware,KiCad,Pcbnew,8.0.9-8.0.9-0~ubuntu24.04.1*%
%TF.CreationDate,2025-09-28T08:38:58-05:00*%
%TF.ProjectId,esp32_doorbot,65737033-325f-4646-9f6f-72626f742e6b,rev?*%
%TF.SameCoordinates,Original*%
%TF.FileFunction,Soldermask,Bot*%
%TF.FilePolarity,Negative*%
%FSLAX46Y46*%
G04 Gerber Fmt 4.6, Leading zero omitted, Abs format (unit mm)*
G04 Created by KiCad (PCBNEW 8.0.9-8.0.9-0~ubuntu24.04.1) date 2025-09-28 08:38:58*
%MOMM*%
%LPD*%
G01*
G04 APERTURE LIST*
G04 Aperture macros list*
%AMRoundRect*
0 Rectangle with rounded corners*
0 $1 Rounding radius*
0 $2 $3 $4 $5 $6 $7 $8 $9 X,Y pos of 4 corners*
0 Add a 4 corners polygon primitive as box body*
4,1,4,$2,$3,$4,$5,$6,$7,$8,$9,$2,$3,0*
0 Add four circle primitives for the rounded corners*
1,1,$1+$1,$2,$3*
1,1,$1+$1,$4,$5*
1,1,$1+$1,$6,$7*
1,1,$1+$1,$8,$9*
0 Add four rect primitives between the rounded corners*
20,1,$1+$1,$2,$3,$4,$5,0*
20,1,$1+$1,$4,$5,$6,$7,0*
20,1,$1+$1,$6,$7,$8,$9,0*
20,1,$1+$1,$8,$9,$2,$3,0*%
G04 Aperture macros list end*
%ADD10RoundRect,0.274660X0.291140X0.641140X-0.291140X0.641140X-0.291140X-0.641140X0.291140X-0.641140X0*%
%ADD11O,1.131600X1.831600*%
%ADD12RoundRect,0.050800X-1.250000X-1.250000X1.250000X-1.250000X1.250000X1.250000X-1.250000X1.250000X0*%
%ADD13C,2.601600*%
%ADD14O,4.301600X2.101600*%
%ADD15O,2.101600X4.301600*%
%ADD16RoundRect,0.050800X-1.016000X-0.863600X1.016000X-0.863600X1.016000X0.863600X-1.016000X0.863600X0*%
%ADD17O,2.133600X1.828800*%
%ADD18O,1.602740X2.600960*%
G04 APERTURE END LIST*
D10*
%TO.C,J1*%
X118000000Y-100800000D03*
D11*
X116500000Y-100800000D03*
X115000000Y-100800000D03*
X113500000Y-100800000D03*
X112000000Y-100800000D03*
X110500000Y-100800000D03*
X109000000Y-100800000D03*
%TD*%
D12*
%TO.C,J2*%
X103750000Y-143256000D03*
D13*
X108750000Y-143256000D03*
%TD*%
D14*
%TO.C,J3*%
X118700000Y-138550000D03*
X118700000Y-144800000D03*
D15*
X123500000Y-141550000D03*
%TD*%
D16*
%TO.C,J4*%
X100000000Y-100000000D03*
D17*
X100000000Y-102540000D03*
X100000000Y-105080000D03*
X100000000Y-107620000D03*
X100000000Y-110160000D03*
X100000000Y-112700000D03*
X100000000Y-115240000D03*
X100000000Y-117780000D03*
X100000000Y-120320000D03*
X100000000Y-122860000D03*
X100000000Y-125400000D03*
X100000000Y-127940000D03*
X100000000Y-130480000D03*
X100000000Y-133020000D03*
X100000000Y-135560000D03*
%TD*%
D16*
%TO.C,J5*%
X125400000Y-100000000D03*
D17*
X125400000Y-102540000D03*
X125400000Y-105080000D03*
X125400000Y-107620000D03*
X125400000Y-110160000D03*
X125400000Y-112700000D03*
X125400000Y-115240000D03*
X125400000Y-117780000D03*
X125400000Y-120320000D03*
X125400000Y-122860000D03*
X125400000Y-125400000D03*
X125400000Y-127940000D03*
X125400000Y-130480000D03*
X125400000Y-133020000D03*
X125400000Y-135560000D03*
%TD*%
D18*
%TO.C,U1*%
X115210000Y-125300000D03*
X117750000Y-125300000D03*
X120290000Y-125300000D03*
%TD*%
M02*
