%TF.GenerationSoftware,KiCad,Pcbnew,8.0.9-8.0.9-0~ubuntu24.04.1*%
%TF.CreationDate,2025-09-28T08:38:58-05:00*%
%TF.ProjectId,esp32_doorbot,65737033-325f-4646-9f6f-72626f742e6b,rev?*%
%TF.SameCoordinates,Original*%
%TF.FileFunction,Legend,Bot*%
%TF.FilePolarity,Positive*%
%FSLAX46Y46*%
G04 Gerber Fmt 4.6, Leading zero omitted, Abs format (unit mm)*
G04 Created by KiCad (PCBNEW 8.0.9-8.0.9-0~ubuntu24.04.1) date 2025-09-28 08:38:58*
%MOMM*%
%LPD*%
G01*
G04 APERTURE LIST*
%ADD10C,0.300000*%
%ADD11C,0.100000*%
%ADD12C,0.010000*%
G04 APERTURE END LIST*
D10*
X105171185Y-101817858D02*
X105099757Y-101889286D01*
X105099757Y-101889286D02*
X105028328Y-102032144D01*
X105028328Y-102032144D02*
X105028328Y-102389286D01*
X105028328Y-102389286D02*
X105099757Y-102532144D01*
X105099757Y-102532144D02*
X105171185Y-102603572D01*
X105171185Y-102603572D02*
X105314042Y-102675001D01*
X105314042Y-102675001D02*
X105456900Y-102675001D01*
X105456900Y-102675001D02*
X105671185Y-102603572D01*
X105671185Y-102603572D02*
X106528328Y-101746429D01*
X106528328Y-101746429D02*
X106528328Y-102675001D01*
X105528328Y-103960715D02*
X106528328Y-103960715D01*
X104956900Y-103603572D02*
X106028328Y-103246429D01*
X106028328Y-103246429D02*
X106028328Y-104175000D01*
X104956900Y-105817857D02*
X106885471Y-104532143D01*
X105028328Y-106175000D02*
X105028328Y-107103572D01*
X105028328Y-107103572D02*
X105599757Y-106603572D01*
X105599757Y-106603572D02*
X105599757Y-106817857D01*
X105599757Y-106817857D02*
X105671185Y-106960715D01*
X105671185Y-106960715D02*
X105742614Y-107032143D01*
X105742614Y-107032143D02*
X105885471Y-107103572D01*
X105885471Y-107103572D02*
X106242614Y-107103572D01*
X106242614Y-107103572D02*
X106385471Y-107032143D01*
X106385471Y-107032143D02*
X106456900Y-106960715D01*
X106456900Y-106960715D02*
X106528328Y-106817857D01*
X106528328Y-106817857D02*
X106528328Y-106389286D01*
X106528328Y-106389286D02*
X106456900Y-106246429D01*
X106456900Y-106246429D02*
X106385471Y-106175000D01*
X105171185Y-107675000D02*
X105099757Y-107746428D01*
X105099757Y-107746428D02*
X105028328Y-107889286D01*
X105028328Y-107889286D02*
X105028328Y-108246428D01*
X105028328Y-108246428D02*
X105099757Y-108389286D01*
X105099757Y-108389286D02*
X105171185Y-108460714D01*
X105171185Y-108460714D02*
X105314042Y-108532143D01*
X105314042Y-108532143D02*
X105456900Y-108532143D01*
X105456900Y-108532143D02*
X105671185Y-108460714D01*
X105671185Y-108460714D02*
X106528328Y-107603571D01*
X106528328Y-107603571D02*
X106528328Y-108532143D01*
X110842614Y-102092857D02*
X110914042Y-102307143D01*
X110914042Y-102307143D02*
X110985471Y-102378572D01*
X110985471Y-102378572D02*
X111128328Y-102450000D01*
X111128328Y-102450000D02*
X111342614Y-102450000D01*
X111342614Y-102450000D02*
X111485471Y-102378572D01*
X111485471Y-102378572D02*
X111556900Y-102307143D01*
X111556900Y-102307143D02*
X111628328Y-102164286D01*
X111628328Y-102164286D02*
X111628328Y-101592857D01*
X111628328Y-101592857D02*
X110128328Y-101592857D01*
X110128328Y-101592857D02*
X110128328Y-102092857D01*
X110128328Y-102092857D02*
X110199757Y-102235715D01*
X110199757Y-102235715D02*
X110271185Y-102307143D01*
X110271185Y-102307143D02*
X110414042Y-102378572D01*
X110414042Y-102378572D02*
X110556900Y-102378572D01*
X110556900Y-102378572D02*
X110699757Y-102307143D01*
X110699757Y-102307143D02*
X110771185Y-102235715D01*
X110771185Y-102235715D02*
X110842614Y-102092857D01*
X110842614Y-102092857D02*
X110842614Y-101592857D01*
X110128328Y-103092857D02*
X111342614Y-103092857D01*
X111342614Y-103092857D02*
X111485471Y-103164286D01*
X111485471Y-103164286D02*
X111556900Y-103235715D01*
X111556900Y-103235715D02*
X111628328Y-103378572D01*
X111628328Y-103378572D02*
X111628328Y-103664286D01*
X111628328Y-103664286D02*
X111556900Y-103807143D01*
X111556900Y-103807143D02*
X111485471Y-103878572D01*
X111485471Y-103878572D02*
X111342614Y-103950000D01*
X111342614Y-103950000D02*
X110128328Y-103950000D01*
X110128328Y-104521429D02*
X110128328Y-105521429D01*
X110128328Y-105521429D02*
X111628328Y-104521429D01*
X111628328Y-104521429D02*
X111628328Y-105521429D01*
X110128328Y-105950000D02*
X110128328Y-106950000D01*
X110128328Y-106950000D02*
X111628328Y-105950000D01*
X111628328Y-105950000D02*
X111628328Y-106950000D01*
X121093100Y-107042856D02*
X121093100Y-105899999D01*
X120521671Y-106471427D02*
X121664528Y-106471427D01*
X120521671Y-104399998D02*
X120521671Y-105257141D01*
X120521671Y-104828570D02*
X122021671Y-104828570D01*
X122021671Y-104828570D02*
X121807385Y-104971427D01*
X121807385Y-104971427D02*
X121664528Y-105114284D01*
X121664528Y-105114284D02*
X121593100Y-105257141D01*
X121878814Y-103828570D02*
X121950242Y-103757142D01*
X121950242Y-103757142D02*
X122021671Y-103614285D01*
X122021671Y-103614285D02*
X122021671Y-103257142D01*
X122021671Y-103257142D02*
X121950242Y-103114285D01*
X121950242Y-103114285D02*
X121878814Y-103042856D01*
X121878814Y-103042856D02*
X121735957Y-102971427D01*
X121735957Y-102971427D02*
X121593100Y-102971427D01*
X121593100Y-102971427D02*
X121378814Y-103042856D01*
X121378814Y-103042856D02*
X120521671Y-103899999D01*
X120521671Y-103899999D02*
X120521671Y-102971427D01*
X122021671Y-102542856D02*
X120521671Y-102042856D01*
X120521671Y-102042856D02*
X122021671Y-101542856D01*
X112703328Y-101642857D02*
X114203328Y-102000000D01*
X114203328Y-102000000D02*
X113131900Y-102285714D01*
X113131900Y-102285714D02*
X114203328Y-102571429D01*
X114203328Y-102571429D02*
X112703328Y-102928572D01*
X112846185Y-103428572D02*
X112774757Y-103500000D01*
X112774757Y-103500000D02*
X112703328Y-103642858D01*
X112703328Y-103642858D02*
X112703328Y-104000000D01*
X112703328Y-104000000D02*
X112774757Y-104142858D01*
X112774757Y-104142858D02*
X112846185Y-104214286D01*
X112846185Y-104214286D02*
X112989042Y-104285715D01*
X112989042Y-104285715D02*
X113131900Y-104285715D01*
X113131900Y-104285715D02*
X113346185Y-104214286D01*
X113346185Y-104214286D02*
X114203328Y-103357143D01*
X114203328Y-103357143D02*
X114203328Y-104285715D01*
X115253328Y-101767857D02*
X116753328Y-102125000D01*
X116753328Y-102125000D02*
X115681900Y-102410714D01*
X115681900Y-102410714D02*
X116753328Y-102696429D01*
X116753328Y-102696429D02*
X115253328Y-103053572D01*
X116753328Y-104410715D02*
X116753328Y-103553572D01*
X116753328Y-103982143D02*
X115253328Y-103982143D01*
X115253328Y-103982143D02*
X115467614Y-103839286D01*
X115467614Y-103839286D02*
X115610471Y-103696429D01*
X115610471Y-103696429D02*
X115681900Y-103553572D01*
X109028328Y-102460714D02*
X109028328Y-101746428D01*
X109028328Y-101746428D02*
X107528328Y-101746428D01*
X108242614Y-102960714D02*
X108242614Y-103460714D01*
X109028328Y-103675000D02*
X109028328Y-102960714D01*
X109028328Y-102960714D02*
X107528328Y-102960714D01*
X107528328Y-102960714D02*
X107528328Y-103675000D01*
X109028328Y-104317857D02*
X107528328Y-104317857D01*
X107528328Y-104317857D02*
X107528328Y-104675000D01*
X107528328Y-104675000D02*
X107599757Y-104889286D01*
X107599757Y-104889286D02*
X107742614Y-105032143D01*
X107742614Y-105032143D02*
X107885471Y-105103572D01*
X107885471Y-105103572D02*
X108171185Y-105175000D01*
X108171185Y-105175000D02*
X108385471Y-105175000D01*
X108385471Y-105175000D02*
X108671185Y-105103572D01*
X108671185Y-105103572D02*
X108814042Y-105032143D01*
X108814042Y-105032143D02*
X108956900Y-104889286D01*
X108956900Y-104889286D02*
X109028328Y-104675000D01*
X109028328Y-104675000D02*
X109028328Y-104317857D01*
X119150242Y-104842856D02*
X119221671Y-104985714D01*
X119221671Y-104985714D02*
X119221671Y-105199999D01*
X119221671Y-105199999D02*
X119150242Y-105414285D01*
X119150242Y-105414285D02*
X119007385Y-105557142D01*
X119007385Y-105557142D02*
X118864528Y-105628571D01*
X118864528Y-105628571D02*
X118578814Y-105699999D01*
X118578814Y-105699999D02*
X118364528Y-105699999D01*
X118364528Y-105699999D02*
X118078814Y-105628571D01*
X118078814Y-105628571D02*
X117935957Y-105557142D01*
X117935957Y-105557142D02*
X117793100Y-105414285D01*
X117793100Y-105414285D02*
X117721671Y-105199999D01*
X117721671Y-105199999D02*
X117721671Y-105057142D01*
X117721671Y-105057142D02*
X117793100Y-104842856D01*
X117793100Y-104842856D02*
X117864528Y-104771428D01*
X117864528Y-104771428D02*
X118364528Y-104771428D01*
X118364528Y-104771428D02*
X118364528Y-105057142D01*
X117721671Y-104128571D02*
X119221671Y-104128571D01*
X119221671Y-104128571D02*
X117721671Y-103271428D01*
X117721671Y-103271428D02*
X119221671Y-103271428D01*
X117721671Y-102557142D02*
X119221671Y-102557142D01*
X119221671Y-102557142D02*
X119221671Y-102199999D01*
X119221671Y-102199999D02*
X119150242Y-101985713D01*
X119150242Y-101985713D02*
X119007385Y-101842856D01*
X119007385Y-101842856D02*
X118864528Y-101771427D01*
X118864528Y-101771427D02*
X118578814Y-101699999D01*
X118578814Y-101699999D02*
X118364528Y-101699999D01*
X118364528Y-101699999D02*
X118078814Y-101771427D01*
X118078814Y-101771427D02*
X117935957Y-101842856D01*
X117935957Y-101842856D02*
X117793100Y-101985713D01*
X117793100Y-101985713D02*
X117721671Y-102199999D01*
X117721671Y-102199999D02*
X117721671Y-102557142D01*
D11*
X121133331Y-108756746D02*
X120966664Y-108756746D01*
X120895236Y-109018651D02*
X121133331Y-109018651D01*
X121133331Y-109018651D02*
X121133331Y-108518651D01*
X121133331Y-108518651D02*
X120895236Y-108518651D01*
X120704759Y-108994842D02*
X120633331Y-109018651D01*
X120633331Y-109018651D02*
X120514283Y-109018651D01*
X120514283Y-109018651D02*
X120466664Y-108994842D01*
X120466664Y-108994842D02*
X120442855Y-108971032D01*
X120442855Y-108971032D02*
X120419045Y-108923413D01*
X120419045Y-108923413D02*
X120419045Y-108875794D01*
X120419045Y-108875794D02*
X120442855Y-108828175D01*
X120442855Y-108828175D02*
X120466664Y-108804365D01*
X120466664Y-108804365D02*
X120514283Y-108780556D01*
X120514283Y-108780556D02*
X120609521Y-108756746D01*
X120609521Y-108756746D02*
X120657140Y-108732937D01*
X120657140Y-108732937D02*
X120680950Y-108709127D01*
X120680950Y-108709127D02*
X120704759Y-108661508D01*
X120704759Y-108661508D02*
X120704759Y-108613889D01*
X120704759Y-108613889D02*
X120680950Y-108566270D01*
X120680950Y-108566270D02*
X120657140Y-108542461D01*
X120657140Y-108542461D02*
X120609521Y-108518651D01*
X120609521Y-108518651D02*
X120490474Y-108518651D01*
X120490474Y-108518651D02*
X120419045Y-108542461D01*
X120204760Y-109018651D02*
X120204760Y-108518651D01*
X120204760Y-108518651D02*
X120014284Y-108518651D01*
X120014284Y-108518651D02*
X119966665Y-108542461D01*
X119966665Y-108542461D02*
X119942855Y-108566270D01*
X119942855Y-108566270D02*
X119919046Y-108613889D01*
X119919046Y-108613889D02*
X119919046Y-108685318D01*
X119919046Y-108685318D02*
X119942855Y-108732937D01*
X119942855Y-108732937D02*
X119966665Y-108756746D01*
X119966665Y-108756746D02*
X120014284Y-108780556D01*
X120014284Y-108780556D02*
X120204760Y-108780556D01*
X119752379Y-108518651D02*
X119442855Y-108518651D01*
X119442855Y-108518651D02*
X119609522Y-108709127D01*
X119609522Y-108709127D02*
X119538093Y-108709127D01*
X119538093Y-108709127D02*
X119490474Y-108732937D01*
X119490474Y-108732937D02*
X119466665Y-108756746D01*
X119466665Y-108756746D02*
X119442855Y-108804365D01*
X119442855Y-108804365D02*
X119442855Y-108923413D01*
X119442855Y-108923413D02*
X119466665Y-108971032D01*
X119466665Y-108971032D02*
X119490474Y-108994842D01*
X119490474Y-108994842D02*
X119538093Y-109018651D01*
X119538093Y-109018651D02*
X119680950Y-109018651D01*
X119680950Y-109018651D02*
X119728569Y-108994842D01*
X119728569Y-108994842D02*
X119752379Y-108971032D01*
X119252379Y-108566270D02*
X119228570Y-108542461D01*
X119228570Y-108542461D02*
X119180951Y-108518651D01*
X119180951Y-108518651D02*
X119061903Y-108518651D01*
X119061903Y-108518651D02*
X119014284Y-108542461D01*
X119014284Y-108542461D02*
X118990475Y-108566270D01*
X118990475Y-108566270D02*
X118966665Y-108613889D01*
X118966665Y-108613889D02*
X118966665Y-108661508D01*
X118966665Y-108661508D02*
X118990475Y-108732937D01*
X118990475Y-108732937D02*
X119276189Y-109018651D01*
X119276189Y-109018651D02*
X118966665Y-109018651D01*
X118371428Y-109018651D02*
X118371428Y-108518651D01*
X118371428Y-108518651D02*
X118252380Y-108518651D01*
X118252380Y-108518651D02*
X118180952Y-108542461D01*
X118180952Y-108542461D02*
X118133333Y-108590080D01*
X118133333Y-108590080D02*
X118109523Y-108637699D01*
X118109523Y-108637699D02*
X118085714Y-108732937D01*
X118085714Y-108732937D02*
X118085714Y-108804365D01*
X118085714Y-108804365D02*
X118109523Y-108899603D01*
X118109523Y-108899603D02*
X118133333Y-108947222D01*
X118133333Y-108947222D02*
X118180952Y-108994842D01*
X118180952Y-108994842D02*
X118252380Y-109018651D01*
X118252380Y-109018651D02*
X118371428Y-109018651D01*
X117799999Y-109018651D02*
X117847618Y-108994842D01*
X117847618Y-108994842D02*
X117871428Y-108971032D01*
X117871428Y-108971032D02*
X117895237Y-108923413D01*
X117895237Y-108923413D02*
X117895237Y-108780556D01*
X117895237Y-108780556D02*
X117871428Y-108732937D01*
X117871428Y-108732937D02*
X117847618Y-108709127D01*
X117847618Y-108709127D02*
X117799999Y-108685318D01*
X117799999Y-108685318D02*
X117728571Y-108685318D01*
X117728571Y-108685318D02*
X117680952Y-108709127D01*
X117680952Y-108709127D02*
X117657142Y-108732937D01*
X117657142Y-108732937D02*
X117633333Y-108780556D01*
X117633333Y-108780556D02*
X117633333Y-108923413D01*
X117633333Y-108923413D02*
X117657142Y-108971032D01*
X117657142Y-108971032D02*
X117680952Y-108994842D01*
X117680952Y-108994842D02*
X117728571Y-109018651D01*
X117728571Y-109018651D02*
X117799999Y-109018651D01*
X117347618Y-109018651D02*
X117395237Y-108994842D01*
X117395237Y-108994842D02*
X117419047Y-108971032D01*
X117419047Y-108971032D02*
X117442856Y-108923413D01*
X117442856Y-108923413D02*
X117442856Y-108780556D01*
X117442856Y-108780556D02*
X117419047Y-108732937D01*
X117419047Y-108732937D02*
X117395237Y-108709127D01*
X117395237Y-108709127D02*
X117347618Y-108685318D01*
X117347618Y-108685318D02*
X117276190Y-108685318D01*
X117276190Y-108685318D02*
X117228571Y-108709127D01*
X117228571Y-108709127D02*
X117204761Y-108732937D01*
X117204761Y-108732937D02*
X117180952Y-108780556D01*
X117180952Y-108780556D02*
X117180952Y-108923413D01*
X117180952Y-108923413D02*
X117204761Y-108971032D01*
X117204761Y-108971032D02*
X117228571Y-108994842D01*
X117228571Y-108994842D02*
X117276190Y-109018651D01*
X117276190Y-109018651D02*
X117347618Y-109018651D01*
X116966666Y-109018651D02*
X116966666Y-108685318D01*
X116966666Y-108780556D02*
X116942856Y-108732937D01*
X116942856Y-108732937D02*
X116919047Y-108709127D01*
X116919047Y-108709127D02*
X116871428Y-108685318D01*
X116871428Y-108685318D02*
X116823809Y-108685318D01*
X116657142Y-109018651D02*
X116657142Y-108518651D01*
X116657142Y-108709127D02*
X116609523Y-108685318D01*
X116609523Y-108685318D02*
X116514285Y-108685318D01*
X116514285Y-108685318D02*
X116466666Y-108709127D01*
X116466666Y-108709127D02*
X116442856Y-108732937D01*
X116442856Y-108732937D02*
X116419047Y-108780556D01*
X116419047Y-108780556D02*
X116419047Y-108923413D01*
X116419047Y-108923413D02*
X116442856Y-108971032D01*
X116442856Y-108971032D02*
X116466666Y-108994842D01*
X116466666Y-108994842D02*
X116514285Y-109018651D01*
X116514285Y-109018651D02*
X116609523Y-109018651D01*
X116609523Y-109018651D02*
X116657142Y-108994842D01*
X116133332Y-109018651D02*
X116180951Y-108994842D01*
X116180951Y-108994842D02*
X116204761Y-108971032D01*
X116204761Y-108971032D02*
X116228570Y-108923413D01*
X116228570Y-108923413D02*
X116228570Y-108780556D01*
X116228570Y-108780556D02*
X116204761Y-108732937D01*
X116204761Y-108732937D02*
X116180951Y-108709127D01*
X116180951Y-108709127D02*
X116133332Y-108685318D01*
X116133332Y-108685318D02*
X116061904Y-108685318D01*
X116061904Y-108685318D02*
X116014285Y-108709127D01*
X116014285Y-108709127D02*
X115990475Y-108732937D01*
X115990475Y-108732937D02*
X115966666Y-108780556D01*
X115966666Y-108780556D02*
X115966666Y-108923413D01*
X115966666Y-108923413D02*
X115990475Y-108971032D01*
X115990475Y-108971032D02*
X116014285Y-108994842D01*
X116014285Y-108994842D02*
X116061904Y-109018651D01*
X116061904Y-109018651D02*
X116133332Y-109018651D01*
X115823808Y-108685318D02*
X115633332Y-108685318D01*
X115752380Y-108518651D02*
X115752380Y-108947222D01*
X115752380Y-108947222D02*
X115728570Y-108994842D01*
X115728570Y-108994842D02*
X115680951Y-109018651D01*
X115680951Y-109018651D02*
X115633332Y-109018651D01*
X115133333Y-108685318D02*
X115014285Y-109018651D01*
X115014285Y-109018651D02*
X114895238Y-108685318D01*
X114490476Y-108518651D02*
X114585714Y-108518651D01*
X114585714Y-108518651D02*
X114633333Y-108542461D01*
X114633333Y-108542461D02*
X114657143Y-108566270D01*
X114657143Y-108566270D02*
X114704762Y-108637699D01*
X114704762Y-108637699D02*
X114728571Y-108732937D01*
X114728571Y-108732937D02*
X114728571Y-108923413D01*
X114728571Y-108923413D02*
X114704762Y-108971032D01*
X114704762Y-108971032D02*
X114680952Y-108994842D01*
X114680952Y-108994842D02*
X114633333Y-109018651D01*
X114633333Y-109018651D02*
X114538095Y-109018651D01*
X114538095Y-109018651D02*
X114490476Y-108994842D01*
X114490476Y-108994842D02*
X114466667Y-108971032D01*
X114466667Y-108971032D02*
X114442857Y-108923413D01*
X114442857Y-108923413D02*
X114442857Y-108804365D01*
X114442857Y-108804365D02*
X114466667Y-108756746D01*
X114466667Y-108756746D02*
X114490476Y-108732937D01*
X114490476Y-108732937D02*
X114538095Y-108709127D01*
X114538095Y-108709127D02*
X114633333Y-108709127D01*
X114633333Y-108709127D02*
X114680952Y-108732937D01*
X114680952Y-108732937D02*
X114704762Y-108756746D01*
X114704762Y-108756746D02*
X114728571Y-108804365D01*
X120549999Y-109561718D02*
X120478571Y-109585528D01*
X120478571Y-109585528D02*
X120454761Y-109609337D01*
X120454761Y-109609337D02*
X120430952Y-109656956D01*
X120430952Y-109656956D02*
X120430952Y-109728385D01*
X120430952Y-109728385D02*
X120454761Y-109776004D01*
X120454761Y-109776004D02*
X120478571Y-109799814D01*
X120478571Y-109799814D02*
X120526190Y-109823623D01*
X120526190Y-109823623D02*
X120716666Y-109823623D01*
X120716666Y-109823623D02*
X120716666Y-109323623D01*
X120716666Y-109323623D02*
X120549999Y-109323623D01*
X120549999Y-109323623D02*
X120502380Y-109347433D01*
X120502380Y-109347433D02*
X120478571Y-109371242D01*
X120478571Y-109371242D02*
X120454761Y-109418861D01*
X120454761Y-109418861D02*
X120454761Y-109466480D01*
X120454761Y-109466480D02*
X120478571Y-109514099D01*
X120478571Y-109514099D02*
X120502380Y-109537909D01*
X120502380Y-109537909D02*
X120549999Y-109561718D01*
X120549999Y-109561718D02*
X120716666Y-109561718D01*
X120264285Y-109490290D02*
X120145237Y-109823623D01*
X120026190Y-109490290D02*
X120145237Y-109823623D01*
X120145237Y-109823623D02*
X120192856Y-109942671D01*
X120192856Y-109942671D02*
X120216666Y-109966480D01*
X120216666Y-109966480D02*
X120264285Y-109990290D01*
X119526190Y-109323623D02*
X119240476Y-109323623D01*
X119383333Y-109823623D02*
X119383333Y-109323623D01*
X119073810Y-109823623D02*
X119073810Y-109490290D01*
X119073810Y-109323623D02*
X119097619Y-109347433D01*
X119097619Y-109347433D02*
X119073810Y-109371242D01*
X119073810Y-109371242D02*
X119050000Y-109347433D01*
X119050000Y-109347433D02*
X119073810Y-109323623D01*
X119073810Y-109323623D02*
X119073810Y-109371242D01*
X118835715Y-109823623D02*
X118835715Y-109490290D01*
X118835715Y-109537909D02*
X118811905Y-109514099D01*
X118811905Y-109514099D02*
X118764286Y-109490290D01*
X118764286Y-109490290D02*
X118692858Y-109490290D01*
X118692858Y-109490290D02*
X118645239Y-109514099D01*
X118645239Y-109514099D02*
X118621429Y-109561718D01*
X118621429Y-109561718D02*
X118621429Y-109823623D01*
X118621429Y-109561718D02*
X118597620Y-109514099D01*
X118597620Y-109514099D02*
X118550001Y-109490290D01*
X118550001Y-109490290D02*
X118478572Y-109490290D01*
X118478572Y-109490290D02*
X118430953Y-109514099D01*
X118430953Y-109514099D02*
X118407143Y-109561718D01*
X118407143Y-109561718D02*
X118407143Y-109823623D01*
X118169048Y-109823623D02*
X118169048Y-109490290D01*
X118169048Y-109537909D02*
X118145238Y-109514099D01*
X118145238Y-109514099D02*
X118097619Y-109490290D01*
X118097619Y-109490290D02*
X118026191Y-109490290D01*
X118026191Y-109490290D02*
X117978572Y-109514099D01*
X117978572Y-109514099D02*
X117954762Y-109561718D01*
X117954762Y-109561718D02*
X117954762Y-109823623D01*
X117954762Y-109561718D02*
X117930953Y-109514099D01*
X117930953Y-109514099D02*
X117883334Y-109490290D01*
X117883334Y-109490290D02*
X117811905Y-109490290D01*
X117811905Y-109490290D02*
X117764286Y-109514099D01*
X117764286Y-109514099D02*
X117740476Y-109561718D01*
X117740476Y-109561718D02*
X117740476Y-109823623D01*
X117121429Y-109823623D02*
X117121429Y-109323623D01*
X117121429Y-109323623D02*
X116954762Y-109680766D01*
X116954762Y-109680766D02*
X116788096Y-109323623D01*
X116788096Y-109323623D02*
X116788096Y-109823623D01*
X116335714Y-109490290D02*
X116335714Y-109823623D01*
X116550000Y-109490290D02*
X116550000Y-109752194D01*
X116550000Y-109752194D02*
X116526190Y-109799814D01*
X116526190Y-109799814D02*
X116478571Y-109823623D01*
X116478571Y-109823623D02*
X116407143Y-109823623D01*
X116407143Y-109823623D02*
X116359524Y-109799814D01*
X116359524Y-109799814D02*
X116335714Y-109776004D01*
X116097619Y-109823623D02*
X116097619Y-109490290D01*
X116097619Y-109585528D02*
X116073809Y-109537909D01*
X116073809Y-109537909D02*
X116050000Y-109514099D01*
X116050000Y-109514099D02*
X116002381Y-109490290D01*
X116002381Y-109490290D02*
X115954762Y-109490290D01*
X115788095Y-109823623D02*
X115788095Y-109490290D01*
X115788095Y-109585528D02*
X115764285Y-109537909D01*
X115764285Y-109537909D02*
X115740476Y-109514099D01*
X115740476Y-109514099D02*
X115692857Y-109490290D01*
X115692857Y-109490290D02*
X115645238Y-109490290D01*
X115264285Y-109823623D02*
X115264285Y-109561718D01*
X115264285Y-109561718D02*
X115288095Y-109514099D01*
X115288095Y-109514099D02*
X115335714Y-109490290D01*
X115335714Y-109490290D02*
X115430952Y-109490290D01*
X115430952Y-109490290D02*
X115478571Y-109514099D01*
X115264285Y-109799814D02*
X115311904Y-109823623D01*
X115311904Y-109823623D02*
X115430952Y-109823623D01*
X115430952Y-109823623D02*
X115478571Y-109799814D01*
X115478571Y-109799814D02*
X115502380Y-109752194D01*
X115502380Y-109752194D02*
X115502380Y-109704575D01*
X115502380Y-109704575D02*
X115478571Y-109656956D01*
X115478571Y-109656956D02*
X115430952Y-109633147D01*
X115430952Y-109633147D02*
X115311904Y-109633147D01*
X115311904Y-109633147D02*
X115264285Y-109609337D01*
X115073809Y-109490290D02*
X114954761Y-109823623D01*
X114835714Y-109490290D02*
X114954761Y-109823623D01*
X114954761Y-109823623D02*
X115002380Y-109942671D01*
X115002380Y-109942671D02*
X115026190Y-109966480D01*
X115026190Y-109966480D02*
X115073809Y-109990290D01*
X120919046Y-110580976D02*
X120942855Y-110604786D01*
X120942855Y-110604786D02*
X121014284Y-110628595D01*
X121014284Y-110628595D02*
X121061903Y-110628595D01*
X121061903Y-110628595D02*
X121133331Y-110604786D01*
X121133331Y-110604786D02*
X121180950Y-110557166D01*
X121180950Y-110557166D02*
X121204760Y-110509547D01*
X121204760Y-110509547D02*
X121228569Y-110414309D01*
X121228569Y-110414309D02*
X121228569Y-110342881D01*
X121228569Y-110342881D02*
X121204760Y-110247643D01*
X121204760Y-110247643D02*
X121180950Y-110200024D01*
X121180950Y-110200024D02*
X121133331Y-110152405D01*
X121133331Y-110152405D02*
X121061903Y-110128595D01*
X121061903Y-110128595D02*
X121014284Y-110128595D01*
X121014284Y-110128595D02*
X120942855Y-110152405D01*
X120942855Y-110152405D02*
X120919046Y-110176214D01*
X120633331Y-110628595D02*
X120680950Y-110604786D01*
X120680950Y-110604786D02*
X120704760Y-110580976D01*
X120704760Y-110580976D02*
X120728569Y-110533357D01*
X120728569Y-110533357D02*
X120728569Y-110390500D01*
X120728569Y-110390500D02*
X120704760Y-110342881D01*
X120704760Y-110342881D02*
X120680950Y-110319071D01*
X120680950Y-110319071D02*
X120633331Y-110295262D01*
X120633331Y-110295262D02*
X120561903Y-110295262D01*
X120561903Y-110295262D02*
X120514284Y-110319071D01*
X120514284Y-110319071D02*
X120490474Y-110342881D01*
X120490474Y-110342881D02*
X120466665Y-110390500D01*
X120466665Y-110390500D02*
X120466665Y-110533357D01*
X120466665Y-110533357D02*
X120490474Y-110580976D01*
X120490474Y-110580976D02*
X120514284Y-110604786D01*
X120514284Y-110604786D02*
X120561903Y-110628595D01*
X120561903Y-110628595D02*
X120633331Y-110628595D01*
X120252379Y-110295262D02*
X120252379Y-110795262D01*
X120252379Y-110319071D02*
X120204760Y-110295262D01*
X120204760Y-110295262D02*
X120109522Y-110295262D01*
X120109522Y-110295262D02*
X120061903Y-110319071D01*
X120061903Y-110319071D02*
X120038093Y-110342881D01*
X120038093Y-110342881D02*
X120014284Y-110390500D01*
X120014284Y-110390500D02*
X120014284Y-110533357D01*
X120014284Y-110533357D02*
X120038093Y-110580976D01*
X120038093Y-110580976D02*
X120061903Y-110604786D01*
X120061903Y-110604786D02*
X120109522Y-110628595D01*
X120109522Y-110628595D02*
X120204760Y-110628595D01*
X120204760Y-110628595D02*
X120252379Y-110604786D01*
X119847617Y-110295262D02*
X119728569Y-110628595D01*
X119609522Y-110295262D02*
X119728569Y-110628595D01*
X119728569Y-110628595D02*
X119776188Y-110747643D01*
X119776188Y-110747643D02*
X119799998Y-110771452D01*
X119799998Y-110771452D02*
X119847617Y-110795262D01*
X119419046Y-110628595D02*
X119419046Y-110295262D01*
X119419046Y-110390500D02*
X119395236Y-110342881D01*
X119395236Y-110342881D02*
X119371427Y-110319071D01*
X119371427Y-110319071D02*
X119323808Y-110295262D01*
X119323808Y-110295262D02*
X119276189Y-110295262D01*
X119109522Y-110628595D02*
X119109522Y-110295262D01*
X119109522Y-110128595D02*
X119133331Y-110152405D01*
X119133331Y-110152405D02*
X119109522Y-110176214D01*
X119109522Y-110176214D02*
X119085712Y-110152405D01*
X119085712Y-110152405D02*
X119109522Y-110128595D01*
X119109522Y-110128595D02*
X119109522Y-110176214D01*
X118657141Y-110295262D02*
X118657141Y-110700024D01*
X118657141Y-110700024D02*
X118680951Y-110747643D01*
X118680951Y-110747643D02*
X118704760Y-110771452D01*
X118704760Y-110771452D02*
X118752379Y-110795262D01*
X118752379Y-110795262D02*
X118823808Y-110795262D01*
X118823808Y-110795262D02*
X118871427Y-110771452D01*
X118657141Y-110604786D02*
X118704760Y-110628595D01*
X118704760Y-110628595D02*
X118799998Y-110628595D01*
X118799998Y-110628595D02*
X118847617Y-110604786D01*
X118847617Y-110604786D02*
X118871427Y-110580976D01*
X118871427Y-110580976D02*
X118895236Y-110533357D01*
X118895236Y-110533357D02*
X118895236Y-110390500D01*
X118895236Y-110390500D02*
X118871427Y-110342881D01*
X118871427Y-110342881D02*
X118847617Y-110319071D01*
X118847617Y-110319071D02*
X118799998Y-110295262D01*
X118799998Y-110295262D02*
X118704760Y-110295262D01*
X118704760Y-110295262D02*
X118657141Y-110319071D01*
X118419046Y-110628595D02*
X118419046Y-110128595D01*
X118204760Y-110628595D02*
X118204760Y-110366690D01*
X118204760Y-110366690D02*
X118228570Y-110319071D01*
X118228570Y-110319071D02*
X118276189Y-110295262D01*
X118276189Y-110295262D02*
X118347617Y-110295262D01*
X118347617Y-110295262D02*
X118395236Y-110319071D01*
X118395236Y-110319071D02*
X118419046Y-110342881D01*
X118038093Y-110295262D02*
X117847617Y-110295262D01*
X117966665Y-110128595D02*
X117966665Y-110557166D01*
X117966665Y-110557166D02*
X117942855Y-110604786D01*
X117942855Y-110604786D02*
X117895236Y-110628595D01*
X117895236Y-110628595D02*
X117847617Y-110628595D01*
X116895237Y-110247643D02*
X116942856Y-110223833D01*
X116942856Y-110223833D02*
X117038094Y-110223833D01*
X117038094Y-110223833D02*
X117085713Y-110247643D01*
X117085713Y-110247643D02*
X117133332Y-110295262D01*
X117133332Y-110295262D02*
X117157142Y-110342881D01*
X117157142Y-110342881D02*
X117157142Y-110438119D01*
X117157142Y-110438119D02*
X117133332Y-110485738D01*
X117133332Y-110485738D02*
X117085713Y-110533357D01*
X117085713Y-110533357D02*
X117038094Y-110557166D01*
X117038094Y-110557166D02*
X116942856Y-110557166D01*
X116942856Y-110557166D02*
X116895237Y-110533357D01*
X116990475Y-110057166D02*
X117109523Y-110080976D01*
X117109523Y-110080976D02*
X117228570Y-110152405D01*
X117228570Y-110152405D02*
X117299999Y-110271452D01*
X117299999Y-110271452D02*
X117323808Y-110390500D01*
X117323808Y-110390500D02*
X117299999Y-110509547D01*
X117299999Y-110509547D02*
X117228570Y-110628595D01*
X117228570Y-110628595D02*
X117109523Y-110700024D01*
X117109523Y-110700024D02*
X116990475Y-110723833D01*
X116990475Y-110723833D02*
X116871427Y-110700024D01*
X116871427Y-110700024D02*
X116752380Y-110628595D01*
X116752380Y-110628595D02*
X116680951Y-110509547D01*
X116680951Y-110509547D02*
X116657142Y-110390500D01*
X116657142Y-110390500D02*
X116680951Y-110271452D01*
X116680951Y-110271452D02*
X116752380Y-110152405D01*
X116752380Y-110152405D02*
X116871427Y-110080976D01*
X116871427Y-110080976D02*
X116990475Y-110057166D01*
X116085713Y-110176214D02*
X116061904Y-110152405D01*
X116061904Y-110152405D02*
X116014285Y-110128595D01*
X116014285Y-110128595D02*
X115895237Y-110128595D01*
X115895237Y-110128595D02*
X115847618Y-110152405D01*
X115847618Y-110152405D02*
X115823809Y-110176214D01*
X115823809Y-110176214D02*
X115799999Y-110223833D01*
X115799999Y-110223833D02*
X115799999Y-110271452D01*
X115799999Y-110271452D02*
X115823809Y-110342881D01*
X115823809Y-110342881D02*
X116109523Y-110628595D01*
X116109523Y-110628595D02*
X115799999Y-110628595D01*
X115490476Y-110128595D02*
X115442857Y-110128595D01*
X115442857Y-110128595D02*
X115395238Y-110152405D01*
X115395238Y-110152405D02*
X115371428Y-110176214D01*
X115371428Y-110176214D02*
X115347619Y-110223833D01*
X115347619Y-110223833D02*
X115323809Y-110319071D01*
X115323809Y-110319071D02*
X115323809Y-110438119D01*
X115323809Y-110438119D02*
X115347619Y-110533357D01*
X115347619Y-110533357D02*
X115371428Y-110580976D01*
X115371428Y-110580976D02*
X115395238Y-110604786D01*
X115395238Y-110604786D02*
X115442857Y-110628595D01*
X115442857Y-110628595D02*
X115490476Y-110628595D01*
X115490476Y-110628595D02*
X115538095Y-110604786D01*
X115538095Y-110604786D02*
X115561904Y-110580976D01*
X115561904Y-110580976D02*
X115585714Y-110533357D01*
X115585714Y-110533357D02*
X115609523Y-110438119D01*
X115609523Y-110438119D02*
X115609523Y-110319071D01*
X115609523Y-110319071D02*
X115585714Y-110223833D01*
X115585714Y-110223833D02*
X115561904Y-110176214D01*
X115561904Y-110176214D02*
X115538095Y-110152405D01*
X115538095Y-110152405D02*
X115490476Y-110128595D01*
X115133333Y-110176214D02*
X115109524Y-110152405D01*
X115109524Y-110152405D02*
X115061905Y-110128595D01*
X115061905Y-110128595D02*
X114942857Y-110128595D01*
X114942857Y-110128595D02*
X114895238Y-110152405D01*
X114895238Y-110152405D02*
X114871429Y-110176214D01*
X114871429Y-110176214D02*
X114847619Y-110223833D01*
X114847619Y-110223833D02*
X114847619Y-110271452D01*
X114847619Y-110271452D02*
X114871429Y-110342881D01*
X114871429Y-110342881D02*
X115157143Y-110628595D01*
X115157143Y-110628595D02*
X114847619Y-110628595D01*
X114371429Y-110628595D02*
X114657143Y-110628595D01*
X114514286Y-110628595D02*
X114514286Y-110128595D01*
X114514286Y-110128595D02*
X114561905Y-110200024D01*
X114561905Y-110200024D02*
X114609524Y-110247643D01*
X114609524Y-110247643D02*
X114657143Y-110271452D01*
X118788094Y-111171662D02*
X118716666Y-111195472D01*
X118716666Y-111195472D02*
X118692856Y-111219281D01*
X118692856Y-111219281D02*
X118669047Y-111266900D01*
X118669047Y-111266900D02*
X118669047Y-111338329D01*
X118669047Y-111338329D02*
X118692856Y-111385948D01*
X118692856Y-111385948D02*
X118716666Y-111409758D01*
X118716666Y-111409758D02*
X118764285Y-111433567D01*
X118764285Y-111433567D02*
X118954761Y-111433567D01*
X118954761Y-111433567D02*
X118954761Y-110933567D01*
X118954761Y-110933567D02*
X118788094Y-110933567D01*
X118788094Y-110933567D02*
X118740475Y-110957377D01*
X118740475Y-110957377D02*
X118716666Y-110981186D01*
X118716666Y-110981186D02*
X118692856Y-111028805D01*
X118692856Y-111028805D02*
X118692856Y-111076424D01*
X118692856Y-111076424D02*
X118716666Y-111124043D01*
X118716666Y-111124043D02*
X118740475Y-111147853D01*
X118740475Y-111147853D02*
X118788094Y-111171662D01*
X118788094Y-111171662D02*
X118954761Y-111171662D01*
X118359523Y-111195472D02*
X118359523Y-111433567D01*
X118526189Y-110933567D02*
X118359523Y-111195472D01*
X118359523Y-111195472D02*
X118192856Y-110933567D01*
X118026190Y-111243091D02*
X117645238Y-111243091D01*
X117121428Y-111385948D02*
X117145237Y-111409758D01*
X117145237Y-111409758D02*
X117216666Y-111433567D01*
X117216666Y-111433567D02*
X117264285Y-111433567D01*
X117264285Y-111433567D02*
X117335713Y-111409758D01*
X117335713Y-111409758D02*
X117383332Y-111362138D01*
X117383332Y-111362138D02*
X117407142Y-111314519D01*
X117407142Y-111314519D02*
X117430951Y-111219281D01*
X117430951Y-111219281D02*
X117430951Y-111147853D01*
X117430951Y-111147853D02*
X117407142Y-111052615D01*
X117407142Y-111052615D02*
X117383332Y-111004996D01*
X117383332Y-111004996D02*
X117335713Y-110957377D01*
X117335713Y-110957377D02*
X117264285Y-110933567D01*
X117264285Y-110933567D02*
X117216666Y-110933567D01*
X117216666Y-110933567D02*
X117145237Y-110957377D01*
X117145237Y-110957377D02*
X117121428Y-110981186D01*
X116621428Y-111385948D02*
X116645237Y-111409758D01*
X116645237Y-111409758D02*
X116716666Y-111433567D01*
X116716666Y-111433567D02*
X116764285Y-111433567D01*
X116764285Y-111433567D02*
X116835713Y-111409758D01*
X116835713Y-111409758D02*
X116883332Y-111362138D01*
X116883332Y-111362138D02*
X116907142Y-111314519D01*
X116907142Y-111314519D02*
X116930951Y-111219281D01*
X116930951Y-111219281D02*
X116930951Y-111147853D01*
X116930951Y-111147853D02*
X116907142Y-111052615D01*
X116907142Y-111052615D02*
X116883332Y-111004996D01*
X116883332Y-111004996D02*
X116835713Y-110957377D01*
X116835713Y-110957377D02*
X116764285Y-110933567D01*
X116764285Y-110933567D02*
X116716666Y-110933567D01*
X116716666Y-110933567D02*
X116645237Y-110957377D01*
X116645237Y-110957377D02*
X116621428Y-110981186D01*
D12*
%TO.C,REF\u002A\u002A*%
X111501782Y-120468020D02*
X110898218Y-120468020D01*
X110898218Y-117450198D01*
X111501782Y-117450198D01*
X111501782Y-120468020D01*
G36*
X111501782Y-120468020D02*
G01*
X110898218Y-120468020D01*
X110898218Y-117450198D01*
X111501782Y-117450198D01*
X111501782Y-120468020D01*
G37*
X111501782Y-136751684D02*
X112708911Y-136751684D01*
X112708911Y-137355248D01*
X111501782Y-137355248D01*
X111501782Y-138562377D01*
X110898218Y-138562377D01*
X110898218Y-137355248D01*
X109691089Y-137355248D01*
X109691089Y-136751927D01*
X110291510Y-136748662D01*
X110891931Y-136745396D01*
X110895196Y-136144976D01*
X110898462Y-135544555D01*
X111501782Y-135544555D01*
X111501782Y-136751684D01*
G36*
X111501782Y-136751684D02*
G01*
X112708911Y-136751684D01*
X112708911Y-137355248D01*
X111501782Y-137355248D01*
X111501782Y-138562377D01*
X110898218Y-138562377D01*
X110898218Y-137355248D01*
X109691089Y-137355248D01*
X109691089Y-136751927D01*
X110291510Y-136748662D01*
X110891931Y-136745396D01*
X110895196Y-136144976D01*
X110898462Y-135544555D01*
X111501782Y-135544555D01*
X111501782Y-136751684D01*
G37*
X111204344Y-126598155D02*
X111308158Y-126599573D01*
X111491073Y-126624798D01*
X111672636Y-126673386D01*
X111756607Y-126704733D01*
X111912292Y-126781725D01*
X112058261Y-126880539D01*
X112196705Y-127002553D01*
X112273625Y-127085445D01*
X112379829Y-127228283D01*
X112465503Y-127381907D01*
X112530650Y-127544023D01*
X112575275Y-127712336D01*
X112599379Y-127884550D01*
X112602966Y-128058372D01*
X112586040Y-128231506D01*
X112548604Y-128401658D01*
X112490661Y-128566533D01*
X112412215Y-128723836D01*
X112313268Y-128871272D01*
X112193825Y-129006547D01*
X112152660Y-129045915D01*
X112048478Y-129132957D01*
X111937391Y-129207193D01*
X111814878Y-129271105D01*
X111676421Y-129327173D01*
X111517500Y-129377880D01*
X111517256Y-129378011D01*
X111515290Y-129384176D01*
X111513486Y-129400026D01*
X111511840Y-129426471D01*
X111510343Y-129464421D01*
X111508992Y-129514785D01*
X111507778Y-129578473D01*
X111506697Y-129656394D01*
X111505742Y-129749459D01*
X111504907Y-129858576D01*
X111504186Y-129984655D01*
X111503573Y-130128606D01*
X111503061Y-130291339D01*
X111502645Y-130473762D01*
X111502318Y-130676786D01*
X111502075Y-130901320D01*
X111501908Y-131148274D01*
X111501813Y-131418557D01*
X111501782Y-131713079D01*
X111501782Y-134043778D01*
X111655817Y-134066417D01*
X111722882Y-134077036D01*
X111979620Y-134131813D01*
X112230547Y-134207511D01*
X112472735Y-134302872D01*
X112703255Y-134416636D01*
X112919178Y-134547547D01*
X113117575Y-134694346D01*
X113127921Y-134702885D01*
X113210595Y-134775407D01*
X113300408Y-134860509D01*
X113390585Y-134951395D01*
X113474354Y-135041263D01*
X113544941Y-135123317D01*
X113643269Y-135251985D01*
X113783096Y-135466304D01*
X113905555Y-135694629D01*
X114009154Y-135933372D01*
X114092397Y-136178947D01*
X114153789Y-136427765D01*
X114191837Y-136676238D01*
X114195854Y-136714451D01*
X114202019Y-136772553D01*
X114207233Y-136821066D01*
X114210670Y-136852278D01*
X114212474Y-136874386D01*
X114214155Y-136932755D01*
X114213745Y-137008007D01*
X114211484Y-137094804D01*
X114207614Y-137187807D01*
X114202373Y-137281678D01*
X114196003Y-137371077D01*
X114188743Y-137450666D01*
X114180834Y-137515107D01*
X114132574Y-137771434D01*
X114059355Y-138035374D01*
X113963787Y-138288075D01*
X113845671Y-138530064D01*
X113704804Y-138761866D01*
X113642980Y-138850420D01*
X113475370Y-139060332D01*
X113290501Y-139252403D01*
X113089311Y-139426002D01*
X112872735Y-139580501D01*
X112641710Y-139715269D01*
X112397173Y-139829676D01*
X112140062Y-139923092D01*
X111871311Y-139994887D01*
X111701257Y-140026950D01*
X111445057Y-140055970D01*
X111182526Y-140064157D01*
X110918125Y-140051602D01*
X110656313Y-140018398D01*
X110401549Y-139964636D01*
X110187869Y-139901380D01*
X109935623Y-139803468D01*
X109694838Y-139683755D01*
X109466754Y-139543021D01*
X109252612Y-139382043D01*
X109053650Y-139201601D01*
X108871108Y-139002476D01*
X108736007Y-138826630D01*
X108594776Y-138605855D01*
X108472654Y-138371103D01*
X108370554Y-138124621D01*
X108289392Y-137868658D01*
X108230082Y-137605462D01*
X108193539Y-137337281D01*
X108189561Y-137284024D01*
X108185352Y-137174857D01*
X108184648Y-137057977D01*
X108848048Y-137057977D01*
X108860149Y-137291396D01*
X108893255Y-137521795D01*
X108947041Y-137746574D01*
X109021185Y-137963132D01*
X109115361Y-138168870D01*
X109229246Y-138361188D01*
X109287483Y-138444545D01*
X109440288Y-138633549D01*
X109608387Y-138802769D01*
X109791126Y-138951808D01*
X109987853Y-139080266D01*
X110197915Y-139187746D01*
X110420657Y-139273850D01*
X110655427Y-139338179D01*
X110901572Y-139380336D01*
X110994927Y-139388335D01*
X111109030Y-139392031D01*
X111233195Y-139391244D01*
X111360418Y-139386253D01*
X111483696Y-139377338D01*
X111596023Y-139364778D01*
X111690396Y-139348853D01*
X111894965Y-139296831D01*
X112122942Y-139216199D01*
X112337342Y-139115328D01*
X112537274Y-138995243D01*
X112721849Y-138856970D01*
X112890176Y-138701534D01*
X113041366Y-138529962D01*
X113174528Y-138343278D01*
X113288772Y-138142509D01*
X113383209Y-137928679D01*
X113456947Y-137702815D01*
X113509097Y-137465942D01*
X113538769Y-137219086D01*
X113539792Y-137204695D01*
X113544021Y-137139817D01*
X113547147Y-137082896D01*
X113548885Y-137039636D01*
X113548950Y-137015743D01*
X113547920Y-137000104D01*
X113545526Y-136960493D01*
X113542962Y-136915149D01*
X113531388Y-136774885D01*
X113493094Y-136536185D01*
X113432520Y-136306093D01*
X113350533Y-136085940D01*
X113248002Y-135877053D01*
X113125794Y-135680761D01*
X112984775Y-135498393D01*
X112825814Y-135331277D01*
X112649778Y-135180742D01*
X112457535Y-135048116D01*
X112249951Y-134934728D01*
X112122297Y-134877694D01*
X111903923Y-134799980D01*
X111679902Y-134745199D01*
X111447590Y-134712761D01*
X111204344Y-134702080D01*
X111177316Y-134702192D01*
X111097106Y-134703657D01*
X111018586Y-134706549D01*
X110949574Y-134710532D01*
X110897888Y-134715270D01*
X110864582Y-134719617D01*
X110624637Y-134764556D01*
X110394701Y-134831612D01*
X110175947Y-134919836D01*
X109969549Y-135028281D01*
X109776681Y-135155996D01*
X109598517Y-135302034D01*
X109436231Y-135465446D01*
X109290996Y-135645283D01*
X109163986Y-135840598D01*
X109056375Y-136050440D01*
X108969337Y-136273862D01*
X108941007Y-136365598D01*
X108888153Y-136592478D01*
X108857274Y-136824137D01*
X108848048Y-137057977D01*
X108184648Y-137057977D01*
X108184620Y-137053302D01*
X108187175Y-136926840D01*
X108192824Y-136802953D01*
X108201374Y-136689124D01*
X108212635Y-136592836D01*
X108238973Y-136440005D01*
X108303888Y-136172993D01*
X108390724Y-135916573D01*
X108498674Y-135671783D01*
X108626930Y-135439665D01*
X108774686Y-135221259D01*
X108941134Y-135017603D01*
X109125468Y-134829739D01*
X109326879Y-134658707D01*
X109544560Y-134505546D01*
X109777705Y-134371297D01*
X110025507Y-134257000D01*
X110155810Y-134208371D01*
X110320886Y-134156755D01*
X110492647Y-134112328D01*
X110661944Y-134077423D01*
X110819629Y-134054377D01*
X110898218Y-134045749D01*
X110898218Y-131675757D01*
X110898179Y-131384281D01*
X110898076Y-131116930D01*
X110897900Y-130872794D01*
X110897647Y-130650965D01*
X110897310Y-130450533D01*
X110896882Y-130270588D01*
X110896359Y-130110222D01*
X110895733Y-129968524D01*
X110894998Y-129844585D01*
X110894150Y-129737496D01*
X110893180Y-129646348D01*
X110892084Y-129570231D01*
X110890854Y-129508236D01*
X110889486Y-129459453D01*
X110887973Y-129422974D01*
X110886308Y-129397888D01*
X110884486Y-129383286D01*
X110882500Y-129378259D01*
X110722432Y-129329734D01*
X110567868Y-129266541D01*
X110429455Y-129190296D01*
X110303370Y-129098871D01*
X110185791Y-128990135D01*
X110155030Y-128957473D01*
X110107642Y-128903937D01*
X110065287Y-128852564D01*
X110034461Y-128811040D01*
X109952631Y-128672698D01*
X109879728Y-128505996D01*
X109828637Y-128332372D01*
X109799292Y-128154362D01*
X109791630Y-127974502D01*
X109805588Y-127795329D01*
X109841103Y-127619377D01*
X109898111Y-127449182D01*
X109976549Y-127287282D01*
X110076353Y-127136211D01*
X110171826Y-127024445D01*
X110303563Y-126903705D01*
X110449108Y-126801932D01*
X110606296Y-126719756D01*
X110772961Y-126657804D01*
X110946936Y-126616705D01*
X111126057Y-126597085D01*
X111204344Y-126598155D01*
G36*
X111204344Y-126598155D02*
G01*
X111308158Y-126599573D01*
X111491073Y-126624798D01*
X111672636Y-126673386D01*
X111756607Y-126704733D01*
X111912292Y-126781725D01*
X112058261Y-126880539D01*
X112196705Y-127002553D01*
X112273625Y-127085445D01*
X112379829Y-127228283D01*
X112465503Y-127381907D01*
X112530650Y-127544023D01*
X112575275Y-127712336D01*
X112599379Y-127884550D01*
X112602966Y-128058372D01*
X112586040Y-128231506D01*
X112548604Y-128401658D01*
X112490661Y-128566533D01*
X112412215Y-128723836D01*
X112313268Y-128871272D01*
X112193825Y-129006547D01*
X112152660Y-129045915D01*
X112048478Y-129132957D01*
X111937391Y-129207193D01*
X111814878Y-129271105D01*
X111676421Y-129327173D01*
X111517500Y-129377880D01*
X111517256Y-129378011D01*
X111515290Y-129384176D01*
X111513486Y-129400026D01*
X111511840Y-129426471D01*
X111510343Y-129464421D01*
X111508992Y-129514785D01*
X111507778Y-129578473D01*
X111506697Y-129656394D01*
X111505742Y-129749459D01*
X111504907Y-129858576D01*
X111504186Y-129984655D01*
X111503573Y-130128606D01*
X111503061Y-130291339D01*
X111502645Y-130473762D01*
X111502318Y-130676786D01*
X111502075Y-130901320D01*
X111501908Y-131148274D01*
X111501813Y-131418557D01*
X111501782Y-131713079D01*
X111501782Y-134043778D01*
X111655817Y-134066417D01*
X111722882Y-134077036D01*
X111979620Y-134131813D01*
X112230547Y-134207511D01*
X112472735Y-134302872D01*
X112703255Y-134416636D01*
X112919178Y-134547547D01*
X113117575Y-134694346D01*
X113127921Y-134702885D01*
X113210595Y-134775407D01*
X113300408Y-134860509D01*
X113390585Y-134951395D01*
X113474354Y-135041263D01*
X113544941Y-135123317D01*
X113643269Y-135251985D01*
X113783096Y-135466304D01*
X113905555Y-135694629D01*
X114009154Y-135933372D01*
X114092397Y-136178947D01*
X114153789Y-136427765D01*
X114191837Y-136676238D01*
X114195854Y-136714451D01*
X114202019Y-136772553D01*
X114207233Y-136821066D01*
X114210670Y-136852278D01*
X114212474Y-136874386D01*
X114214155Y-136932755D01*
X114213745Y-137008007D01*
X114211484Y-137094804D01*
X114207614Y-137187807D01*
X114202373Y-137281678D01*
X114196003Y-137371077D01*
X114188743Y-137450666D01*
X114180834Y-137515107D01*
X114132574Y-137771434D01*
X114059355Y-138035374D01*
X113963787Y-138288075D01*
X113845671Y-138530064D01*
X113704804Y-138761866D01*
X113642980Y-138850420D01*
X113475370Y-139060332D01*
X113290501Y-139252403D01*
X113089311Y-139426002D01*
X112872735Y-139580501D01*
X112641710Y-139715269D01*
X112397173Y-139829676D01*
X112140062Y-139923092D01*
X111871311Y-139994887D01*
X111701257Y-140026950D01*
X111445057Y-140055970D01*
X111182526Y-140064157D01*
X110918125Y-140051602D01*
X110656313Y-140018398D01*
X110401549Y-139964636D01*
X110187869Y-139901380D01*
X109935623Y-139803468D01*
X109694838Y-139683755D01*
X109466754Y-139543021D01*
X109252612Y-139382043D01*
X109053650Y-139201601D01*
X108871108Y-139002476D01*
X108736007Y-138826630D01*
X108594776Y-138605855D01*
X108472654Y-138371103D01*
X108370554Y-138124621D01*
X108289392Y-137868658D01*
X108230082Y-137605462D01*
X108193539Y-137337281D01*
X108189561Y-137284024D01*
X108185352Y-137174857D01*
X108184648Y-137057977D01*
X108848048Y-137057977D01*
X108860149Y-137291396D01*
X108893255Y-137521795D01*
X108947041Y-137746574D01*
X109021185Y-137963132D01*
X109115361Y-138168870D01*
X109229246Y-138361188D01*
X109287483Y-138444545D01*
X109440288Y-138633549D01*
X109608387Y-138802769D01*
X109791126Y-138951808D01*
X109987853Y-139080266D01*
X110197915Y-139187746D01*
X110420657Y-139273850D01*
X110655427Y-139338179D01*
X110901572Y-139380336D01*
X110994927Y-139388335D01*
X111109030Y-139392031D01*
X111233195Y-139391244D01*
X111360418Y-139386253D01*
X111483696Y-139377338D01*
X111596023Y-139364778D01*
X111690396Y-139348853D01*
X111894965Y-139296831D01*
X112122942Y-139216199D01*
X112337342Y-139115328D01*
X112537274Y-138995243D01*
X112721849Y-138856970D01*
X112890176Y-138701534D01*
X113041366Y-138529962D01*
X113174528Y-138343278D01*
X113288772Y-138142509D01*
X113383209Y-137928679D01*
X113456947Y-137702815D01*
X113509097Y-137465942D01*
X113538769Y-137219086D01*
X113539792Y-137204695D01*
X113544021Y-137139817D01*
X113547147Y-137082896D01*
X113548885Y-137039636D01*
X113548950Y-137015743D01*
X113547920Y-137000104D01*
X113545526Y-136960493D01*
X113542962Y-136915149D01*
X113531388Y-136774885D01*
X113493094Y-136536185D01*
X113432520Y-136306093D01*
X113350533Y-136085940D01*
X113248002Y-135877053D01*
X113125794Y-135680761D01*
X112984775Y-135498393D01*
X112825814Y-135331277D01*
X112649778Y-135180742D01*
X112457535Y-135048116D01*
X112249951Y-134934728D01*
X112122297Y-134877694D01*
X111903923Y-134799980D01*
X111679902Y-134745199D01*
X111447590Y-134712761D01*
X111204344Y-134702080D01*
X111177316Y-134702192D01*
X111097106Y-134703657D01*
X111018586Y-134706549D01*
X110949574Y-134710532D01*
X110897888Y-134715270D01*
X110864582Y-134719617D01*
X110624637Y-134764556D01*
X110394701Y-134831612D01*
X110175947Y-134919836D01*
X109969549Y-135028281D01*
X109776681Y-135155996D01*
X109598517Y-135302034D01*
X109436231Y-135465446D01*
X109290996Y-135645283D01*
X109163986Y-135840598D01*
X109056375Y-136050440D01*
X108969337Y-136273862D01*
X108941007Y-136365598D01*
X108888153Y-136592478D01*
X108857274Y-136824137D01*
X108848048Y-137057977D01*
X108184648Y-137057977D01*
X108184620Y-137053302D01*
X108187175Y-136926840D01*
X108192824Y-136802953D01*
X108201374Y-136689124D01*
X108212635Y-136592836D01*
X108238973Y-136440005D01*
X108303888Y-136172993D01*
X108390724Y-135916573D01*
X108498674Y-135671783D01*
X108626930Y-135439665D01*
X108774686Y-135221259D01*
X108941134Y-135017603D01*
X109125468Y-134829739D01*
X109326879Y-134658707D01*
X109544560Y-134505546D01*
X109777705Y-134371297D01*
X110025507Y-134257000D01*
X110155810Y-134208371D01*
X110320886Y-134156755D01*
X110492647Y-134112328D01*
X110661944Y-134077423D01*
X110819629Y-134054377D01*
X110898218Y-134045749D01*
X110898218Y-131675757D01*
X110898179Y-131384281D01*
X110898076Y-131116930D01*
X110897900Y-130872794D01*
X110897647Y-130650965D01*
X110897310Y-130450533D01*
X110896882Y-130270588D01*
X110896359Y-130110222D01*
X110895733Y-129968524D01*
X110894998Y-129844585D01*
X110894150Y-129737496D01*
X110893180Y-129646348D01*
X110892084Y-129570231D01*
X110890854Y-129508236D01*
X110889486Y-129459453D01*
X110887973Y-129422974D01*
X110886308Y-129397888D01*
X110884486Y-129383286D01*
X110882500Y-129378259D01*
X110722432Y-129329734D01*
X110567868Y-129266541D01*
X110429455Y-129190296D01*
X110303370Y-129098871D01*
X110185791Y-128990135D01*
X110155030Y-128957473D01*
X110107642Y-128903937D01*
X110065287Y-128852564D01*
X110034461Y-128811040D01*
X109952631Y-128672698D01*
X109879728Y-128505996D01*
X109828637Y-128332372D01*
X109799292Y-128154362D01*
X109791630Y-127974502D01*
X109805588Y-127795329D01*
X109841103Y-127619377D01*
X109898111Y-127449182D01*
X109976549Y-127287282D01*
X110076353Y-127136211D01*
X110171826Y-127024445D01*
X110303563Y-126903705D01*
X110449108Y-126801932D01*
X110606296Y-126719756D01*
X110772961Y-126657804D01*
X110946936Y-126616705D01*
X111126057Y-126597085D01*
X111204344Y-126598155D01*
G37*
X111333958Y-115949007D02*
X111448966Y-115952501D01*
X111551052Y-115959140D01*
X111646295Y-115969592D01*
X111740777Y-115984524D01*
X111840579Y-116004604D01*
X111951783Y-116030499D01*
X112016692Y-116047099D01*
X112274689Y-116128658D01*
X112521529Y-116231812D01*
X112756073Y-116355515D01*
X112977183Y-116498723D01*
X113183718Y-116660388D01*
X113374541Y-116839467D01*
X113548512Y-117034913D01*
X113704491Y-117245680D01*
X113841341Y-117470723D01*
X113957922Y-117708997D01*
X114053095Y-117959456D01*
X114073736Y-118024213D01*
X114111783Y-118157313D01*
X114143227Y-118290303D01*
X114169320Y-118429485D01*
X114191313Y-118581162D01*
X114210459Y-118751634D01*
X114211615Y-118773301D01*
X114212398Y-118818741D01*
X114212465Y-118879867D01*
X114211815Y-118951453D01*
X114210449Y-119028268D01*
X114208692Y-119086156D01*
X114185961Y-119369336D01*
X114139973Y-119642990D01*
X114070744Y-119907071D01*
X113978289Y-120161535D01*
X113862626Y-120406336D01*
X113723770Y-120641429D01*
X113561737Y-120866768D01*
X113513056Y-120925999D01*
X113399258Y-121050139D01*
X113270155Y-121175212D01*
X113131369Y-121296191D01*
X112988520Y-121408049D01*
X112847228Y-121505760D01*
X112669234Y-121609518D01*
X112465049Y-121707986D01*
X112249657Y-121793244D01*
X112029042Y-121863173D01*
X111809191Y-121915654D01*
X111596089Y-121948568D01*
X111508070Y-121958070D01*
X111501682Y-125001508D01*
X111677107Y-125029707D01*
X111819067Y-125055904D01*
X112076394Y-125121795D01*
X112326949Y-125210773D01*
X112573868Y-125323865D01*
X112811206Y-125458820D01*
X113034133Y-125613973D01*
X113241403Y-125788117D01*
X113431867Y-125980096D01*
X113604378Y-126188752D01*
X113757788Y-126412927D01*
X113890949Y-126651466D01*
X113971983Y-126824741D01*
X114060401Y-127052532D01*
X114127366Y-127280746D01*
X114173925Y-127513847D01*
X114201123Y-127756301D01*
X114210009Y-128012575D01*
X114203594Y-128214011D01*
X114173804Y-128486016D01*
X114120101Y-128751181D01*
X114042889Y-129008539D01*
X113942570Y-129257126D01*
X113819550Y-129495976D01*
X113674233Y-129724123D01*
X113507021Y-129940602D01*
X113318319Y-130144448D01*
X113299988Y-130162320D01*
X113249043Y-130209995D01*
X113192677Y-130260514D01*
X113134311Y-130311043D01*
X113077364Y-130358744D01*
X113025259Y-130400782D01*
X112981416Y-130434321D01*
X112949257Y-130456524D01*
X112932202Y-130464555D01*
X112931640Y-130464303D01*
X112920410Y-130451487D01*
X112897618Y-130421541D01*
X112865552Y-130377595D01*
X112826501Y-130322780D01*
X112782754Y-130260223D01*
X112736058Y-130192965D01*
X112691166Y-130128479D01*
X112651308Y-130071390D01*
X112619575Y-130026126D01*
X112599058Y-129997116D01*
X112557029Y-129938340D01*
X112673836Y-129844939D01*
X112794741Y-129741389D01*
X112964161Y-129569263D01*
X113114717Y-129381155D01*
X113245446Y-129178452D01*
X113355388Y-128962539D01*
X113443581Y-128734803D01*
X113503717Y-128518361D01*
X113544490Y-128283431D01*
X113561015Y-128047023D01*
X113553523Y-127810829D01*
X113522247Y-127576540D01*
X113467417Y-127345849D01*
X113389266Y-127120446D01*
X113288025Y-126902025D01*
X113163926Y-126692278D01*
X113131096Y-126643959D01*
X112984399Y-126455362D01*
X112820161Y-126284095D01*
X112639658Y-126130965D01*
X112444164Y-125996776D01*
X112234956Y-125882333D01*
X112013307Y-125788441D01*
X111780493Y-125715905D01*
X111537789Y-125665531D01*
X111528126Y-125664057D01*
X111429384Y-125653278D01*
X111314862Y-125646930D01*
X111192636Y-125645009D01*
X111070783Y-125647514D01*
X110957379Y-125654441D01*
X110860499Y-125665787D01*
X110801610Y-125675734D01*
X110558680Y-125731562D01*
X110328108Y-125809286D01*
X110109802Y-125908951D01*
X109903671Y-126030605D01*
X109709624Y-126174294D01*
X109527568Y-126340063D01*
X109418148Y-126457789D01*
X109271424Y-126645605D01*
X109145416Y-126846006D01*
X109040642Y-127057283D01*
X108957618Y-127277730D01*
X108896861Y-127505637D01*
X108858889Y-127739295D01*
X108844217Y-127976998D01*
X108853363Y-128217037D01*
X108886844Y-128457703D01*
X108910970Y-128567698D01*
X108976457Y-128783496D01*
X109064029Y-128994655D01*
X109171818Y-129198171D01*
X109297958Y-129391036D01*
X109440579Y-129570246D01*
X109597816Y-129732794D01*
X109767800Y-129875675D01*
X109801697Y-129903123D01*
X109826301Y-129926901D01*
X109835693Y-129941402D01*
X109831092Y-129951304D01*
X109813833Y-129979790D01*
X109785598Y-130023498D01*
X109748325Y-130079485D01*
X109703954Y-130144808D01*
X109654424Y-130216524D01*
X109473156Y-130476932D01*
X109428088Y-130443478D01*
X109306909Y-130348858D01*
X109100249Y-130163266D01*
X108911958Y-129961189D01*
X108742939Y-129743838D01*
X108594094Y-129512420D01*
X108466325Y-129268147D01*
X108360535Y-129012228D01*
X108294910Y-128807122D01*
X108234983Y-128547425D01*
X108198872Y-128284256D01*
X108186333Y-128019378D01*
X108197125Y-127754553D01*
X108231006Y-127491545D01*
X108287732Y-127232117D01*
X108367062Y-126978030D01*
X108468752Y-126731049D01*
X108592562Y-126492935D01*
X108738247Y-126265451D01*
X108890848Y-126068219D01*
X109070883Y-125873248D01*
X109267697Y-125694143D01*
X109479139Y-125532399D01*
X109703058Y-125389515D01*
X109937303Y-125266987D01*
X110179725Y-125166313D01*
X110428171Y-125088990D01*
X110439221Y-125086165D01*
X110501447Y-125071466D01*
X110572678Y-125056185D01*
X110647329Y-125041359D01*
X110719813Y-125028024D01*
X110784545Y-125017217D01*
X110835940Y-125009972D01*
X110868411Y-125007327D01*
X110898218Y-125007327D01*
X110898218Y-121964836D01*
X110869926Y-121959000D01*
X110864603Y-121957988D01*
X110833363Y-121952950D01*
X110787446Y-121946249D01*
X110734753Y-121939051D01*
X110659854Y-121928024D01*
X110413665Y-121876211D01*
X110168592Y-121801484D01*
X109928154Y-121705369D01*
X109695871Y-121589391D01*
X109475264Y-121455077D01*
X109269852Y-121303953D01*
X109245730Y-121284044D01*
X109155405Y-121203767D01*
X109059408Y-121110902D01*
X108964086Y-121011970D01*
X108875786Y-120913494D01*
X108800851Y-120821993D01*
X108665669Y-120629638D01*
X108536974Y-120408594D01*
X108425906Y-120174965D01*
X108334558Y-119933177D01*
X108265019Y-119687655D01*
X108248862Y-119616871D01*
X108227852Y-119513507D01*
X108212124Y-119416415D01*
X108201015Y-119319327D01*
X108193863Y-119215973D01*
X108190009Y-119100086D01*
X108188788Y-118965396D01*
X108188794Y-118937368D01*
X108189289Y-118877615D01*
X108847919Y-118877615D01*
X108851938Y-119116677D01*
X108878726Y-119354145D01*
X108928267Y-119587714D01*
X109000547Y-119815083D01*
X109095549Y-120033946D01*
X109179481Y-120187967D01*
X109309996Y-120383764D01*
X109457969Y-120562626D01*
X109622152Y-120723860D01*
X109801300Y-120866776D01*
X109994169Y-120990682D01*
X110199512Y-121094887D01*
X110416084Y-121178700D01*
X110642640Y-121241429D01*
X110877934Y-121282383D01*
X111120720Y-121300871D01*
X111369753Y-121296201D01*
X111466157Y-121288031D01*
X111705482Y-121251149D01*
X111934949Y-121192019D01*
X112153511Y-121111689D01*
X112360120Y-121011206D01*
X112553730Y-120891616D01*
X112733294Y-120753965D01*
X112897765Y-120599300D01*
X113046096Y-120428668D01*
X113177241Y-120243114D01*
X113290152Y-120043686D01*
X113383783Y-119831430D01*
X113457086Y-119607392D01*
X113509016Y-119372620D01*
X113538524Y-119128159D01*
X113539841Y-119109626D01*
X113544099Y-119045383D01*
X113547311Y-118990051D01*
X113549184Y-118949019D01*
X113549427Y-118927674D01*
X113548348Y-118912000D01*
X113545769Y-118874391D01*
X113542248Y-118823007D01*
X113538223Y-118764208D01*
X113529924Y-118670429D01*
X113492102Y-118434505D01*
X113431129Y-118205545D01*
X113347901Y-117985217D01*
X113243313Y-117775188D01*
X113118261Y-117577128D01*
X112973641Y-117392704D01*
X112810349Y-117223584D01*
X112629281Y-117071438D01*
X112556040Y-117018451D01*
X112355171Y-116894347D01*
X112142444Y-116792055D01*
X111918899Y-116711912D01*
X111685570Y-116654253D01*
X111443496Y-116619411D01*
X111193713Y-116607723D01*
X111160821Y-116607930D01*
X110915479Y-116622784D01*
X110677652Y-116660562D01*
X110448587Y-116720499D01*
X110229530Y-116801829D01*
X110021731Y-116903784D01*
X109826436Y-117025598D01*
X109644892Y-117166505D01*
X109478348Y-117325739D01*
X109328051Y-117502531D01*
X109195248Y-117696117D01*
X109081188Y-117905729D01*
X109059848Y-117951506D01*
X108972634Y-118173905D01*
X108908252Y-118403926D01*
X108866685Y-118639264D01*
X108847919Y-118877615D01*
X108189289Y-118877615D01*
X108189800Y-118815922D01*
X108192868Y-118712392D01*
X108198593Y-118620820D01*
X108207575Y-118535249D01*
X108220410Y-118449719D01*
X108237696Y-118358272D01*
X108260030Y-118254951D01*
X108289576Y-118135074D01*
X108371403Y-117876524D01*
X108474713Y-117629568D01*
X108598484Y-117395240D01*
X108741693Y-117174575D01*
X108903316Y-116968605D01*
X109082333Y-116778368D01*
X109277719Y-116604895D01*
X109488452Y-116449223D01*
X109713511Y-116312385D01*
X109951871Y-116195416D01*
X110202510Y-116099349D01*
X110464406Y-116025221D01*
X110558820Y-116003925D01*
X110659131Y-115984155D01*
X110753894Y-115969421D01*
X110849237Y-115959081D01*
X110951286Y-115952491D01*
X111066165Y-115949009D01*
X111193713Y-115948039D01*
X111200000Y-115947992D01*
X111333958Y-115949007D01*
G36*
X111333958Y-115949007D02*
G01*
X111448966Y-115952501D01*
X111551052Y-115959140D01*
X111646295Y-115969592D01*
X111740777Y-115984524D01*
X111840579Y-116004604D01*
X111951783Y-116030499D01*
X112016692Y-116047099D01*
X112274689Y-116128658D01*
X112521529Y-116231812D01*
X112756073Y-116355515D01*
X112977183Y-116498723D01*
X113183718Y-116660388D01*
X113374541Y-116839467D01*
X113548512Y-117034913D01*
X113704491Y-117245680D01*
X113841341Y-117470723D01*
X113957922Y-117708997D01*
X114053095Y-117959456D01*
X114073736Y-118024213D01*
X114111783Y-118157313D01*
X114143227Y-118290303D01*
X114169320Y-118429485D01*
X114191313Y-118581162D01*
X114210459Y-118751634D01*
X114211615Y-118773301D01*
X114212398Y-118818741D01*
X114212465Y-118879867D01*
X114211815Y-118951453D01*
X114210449Y-119028268D01*
X114208692Y-119086156D01*
X114185961Y-119369336D01*
X114139973Y-119642990D01*
X114070744Y-119907071D01*
X113978289Y-120161535D01*
X113862626Y-120406336D01*
X113723770Y-120641429D01*
X113561737Y-120866768D01*
X113513056Y-120925999D01*
X113399258Y-121050139D01*
X113270155Y-121175212D01*
X113131369Y-121296191D01*
X112988520Y-121408049D01*
X112847228Y-121505760D01*
X112669234Y-121609518D01*
X112465049Y-121707986D01*
X112249657Y-121793244D01*
X112029042Y-121863173D01*
X111809191Y-121915654D01*
X111596089Y-121948568D01*
X111508070Y-121958070D01*
X111501682Y-125001508D01*
X111677107Y-125029707D01*
X111819067Y-125055904D01*
X112076394Y-125121795D01*
X112326949Y-125210773D01*
X112573868Y-125323865D01*
X112811206Y-125458820D01*
X113034133Y-125613973D01*
X113241403Y-125788117D01*
X113431867Y-125980096D01*
X113604378Y-126188752D01*
X113757788Y-126412927D01*
X113890949Y-126651466D01*
X113971983Y-126824741D01*
X114060401Y-127052532D01*
X114127366Y-127280746D01*
X114173925Y-127513847D01*
X114201123Y-127756301D01*
X114210009Y-128012575D01*
X114203594Y-128214011D01*
X114173804Y-128486016D01*
X114120101Y-128751181D01*
X114042889Y-129008539D01*
X113942570Y-129257126D01*
X113819550Y-129495976D01*
X113674233Y-129724123D01*
X113507021Y-129940602D01*
X113318319Y-130144448D01*
X113299988Y-130162320D01*
X113249043Y-130209995D01*
X113192677Y-130260514D01*
X113134311Y-130311043D01*
X113077364Y-130358744D01*
X113025259Y-130400782D01*
X112981416Y-130434321D01*
X112949257Y-130456524D01*
X112932202Y-130464555D01*
X112931640Y-130464303D01*
X112920410Y-130451487D01*
X112897618Y-130421541D01*
X112865552Y-130377595D01*
X112826501Y-130322780D01*
X112782754Y-130260223D01*
X112736058Y-130192965D01*
X112691166Y-130128479D01*
X112651308Y-130071390D01*
X112619575Y-130026126D01*
X112599058Y-129997116D01*
X112557029Y-129938340D01*
X112673836Y-129844939D01*
X112794741Y-129741389D01*
X112964161Y-129569263D01*
X113114717Y-129381155D01*
X113245446Y-129178452D01*
X113355388Y-128962539D01*
X113443581Y-128734803D01*
X113503717Y-128518361D01*
X113544490Y-128283431D01*
X113561015Y-128047023D01*
X113553523Y-127810829D01*
X113522247Y-127576540D01*
X113467417Y-127345849D01*
X113389266Y-127120446D01*
X113288025Y-126902025D01*
X113163926Y-126692278D01*
X113131096Y-126643959D01*
X112984399Y-126455362D01*
X112820161Y-126284095D01*
X112639658Y-126130965D01*
X112444164Y-125996776D01*
X112234956Y-125882333D01*
X112013307Y-125788441D01*
X111780493Y-125715905D01*
X111537789Y-125665531D01*
X111528126Y-125664057D01*
X111429384Y-125653278D01*
X111314862Y-125646930D01*
X111192636Y-125645009D01*
X111070783Y-125647514D01*
X110957379Y-125654441D01*
X110860499Y-125665787D01*
X110801610Y-125675734D01*
X110558680Y-125731562D01*
X110328108Y-125809286D01*
X110109802Y-125908951D01*
X109903671Y-126030605D01*
X109709624Y-126174294D01*
X109527568Y-126340063D01*
X109418148Y-126457789D01*
X109271424Y-126645605D01*
X109145416Y-126846006D01*
X109040642Y-127057283D01*
X108957618Y-127277730D01*
X108896861Y-127505637D01*
X108858889Y-127739295D01*
X108844217Y-127976998D01*
X108853363Y-128217037D01*
X108886844Y-128457703D01*
X108910970Y-128567698D01*
X108976457Y-128783496D01*
X109064029Y-128994655D01*
X109171818Y-129198171D01*
X109297958Y-129391036D01*
X109440579Y-129570246D01*
X109597816Y-129732794D01*
X109767800Y-129875675D01*
X109801697Y-129903123D01*
X109826301Y-129926901D01*
X109835693Y-129941402D01*
X109831092Y-129951304D01*
X109813833Y-129979790D01*
X109785598Y-130023498D01*
X109748325Y-130079485D01*
X109703954Y-130144808D01*
X109654424Y-130216524D01*
X109473156Y-130476932D01*
X109428088Y-130443478D01*
X109306909Y-130348858D01*
X109100249Y-130163266D01*
X108911958Y-129961189D01*
X108742939Y-129743838D01*
X108594094Y-129512420D01*
X108466325Y-129268147D01*
X108360535Y-129012228D01*
X108294910Y-128807122D01*
X108234983Y-128547425D01*
X108198872Y-128284256D01*
X108186333Y-128019378D01*
X108197125Y-127754553D01*
X108231006Y-127491545D01*
X108287732Y-127232117D01*
X108367062Y-126978030D01*
X108468752Y-126731049D01*
X108592562Y-126492935D01*
X108738247Y-126265451D01*
X108890848Y-126068219D01*
X109070883Y-125873248D01*
X109267697Y-125694143D01*
X109479139Y-125532399D01*
X109703058Y-125389515D01*
X109937303Y-125266987D01*
X110179725Y-125166313D01*
X110428171Y-125088990D01*
X110439221Y-125086165D01*
X110501447Y-125071466D01*
X110572678Y-125056185D01*
X110647329Y-125041359D01*
X110719813Y-125028024D01*
X110784545Y-125017217D01*
X110835940Y-125009972D01*
X110868411Y-125007327D01*
X110898218Y-125007327D01*
X110898218Y-121964836D01*
X110869926Y-121959000D01*
X110864603Y-121957988D01*
X110833363Y-121952950D01*
X110787446Y-121946249D01*
X110734753Y-121939051D01*
X110659854Y-121928024D01*
X110413665Y-121876211D01*
X110168592Y-121801484D01*
X109928154Y-121705369D01*
X109695871Y-121589391D01*
X109475264Y-121455077D01*
X109269852Y-121303953D01*
X109245730Y-121284044D01*
X109155405Y-121203767D01*
X109059408Y-121110902D01*
X108964086Y-121011970D01*
X108875786Y-120913494D01*
X108800851Y-120821993D01*
X108665669Y-120629638D01*
X108536974Y-120408594D01*
X108425906Y-120174965D01*
X108334558Y-119933177D01*
X108265019Y-119687655D01*
X108248862Y-119616871D01*
X108227852Y-119513507D01*
X108212124Y-119416415D01*
X108201015Y-119319327D01*
X108193863Y-119215973D01*
X108190009Y-119100086D01*
X108188788Y-118965396D01*
X108188794Y-118937368D01*
X108189289Y-118877615D01*
X108847919Y-118877615D01*
X108851938Y-119116677D01*
X108878726Y-119354145D01*
X108928267Y-119587714D01*
X109000547Y-119815083D01*
X109095549Y-120033946D01*
X109179481Y-120187967D01*
X109309996Y-120383764D01*
X109457969Y-120562626D01*
X109622152Y-120723860D01*
X109801300Y-120866776D01*
X109994169Y-120990682D01*
X110199512Y-121094887D01*
X110416084Y-121178700D01*
X110642640Y-121241429D01*
X110877934Y-121282383D01*
X111120720Y-121300871D01*
X111369753Y-121296201D01*
X111466157Y-121288031D01*
X111705482Y-121251149D01*
X111934949Y-121192019D01*
X112153511Y-121111689D01*
X112360120Y-121011206D01*
X112553730Y-120891616D01*
X112733294Y-120753965D01*
X112897765Y-120599300D01*
X113046096Y-120428668D01*
X113177241Y-120243114D01*
X113290152Y-120043686D01*
X113383783Y-119831430D01*
X113457086Y-119607392D01*
X113509016Y-119372620D01*
X113538524Y-119128159D01*
X113539841Y-119109626D01*
X113544099Y-119045383D01*
X113547311Y-118990051D01*
X113549184Y-118949019D01*
X113549427Y-118927674D01*
X113548348Y-118912000D01*
X113545769Y-118874391D01*
X113542248Y-118823007D01*
X113538223Y-118764208D01*
X113529924Y-118670429D01*
X113492102Y-118434505D01*
X113431129Y-118205545D01*
X113347901Y-117985217D01*
X113243313Y-117775188D01*
X113118261Y-117577128D01*
X112973641Y-117392704D01*
X112810349Y-117223584D01*
X112629281Y-117071438D01*
X112556040Y-117018451D01*
X112355171Y-116894347D01*
X112142444Y-116792055D01*
X111918899Y-116711912D01*
X111685570Y-116654253D01*
X111443496Y-116619411D01*
X111193713Y-116607723D01*
X111160821Y-116607930D01*
X110915479Y-116622784D01*
X110677652Y-116660562D01*
X110448587Y-116720499D01*
X110229530Y-116801829D01*
X110021731Y-116903784D01*
X109826436Y-117025598D01*
X109644892Y-117166505D01*
X109478348Y-117325739D01*
X109328051Y-117502531D01*
X109195248Y-117696117D01*
X109081188Y-117905729D01*
X109059848Y-117951506D01*
X108972634Y-118173905D01*
X108908252Y-118403926D01*
X108866685Y-118639264D01*
X108847919Y-118877615D01*
X108189289Y-118877615D01*
X108189800Y-118815922D01*
X108192868Y-118712392D01*
X108198593Y-118620820D01*
X108207575Y-118535249D01*
X108220410Y-118449719D01*
X108237696Y-118358272D01*
X108260030Y-118254951D01*
X108289576Y-118135074D01*
X108371403Y-117876524D01*
X108474713Y-117629568D01*
X108598484Y-117395240D01*
X108741693Y-117174575D01*
X108903316Y-116968605D01*
X109082333Y-116778368D01*
X109277719Y-116604895D01*
X109488452Y-116449223D01*
X109713511Y-116312385D01*
X109951871Y-116195416D01*
X110202510Y-116099349D01*
X110464406Y-116025221D01*
X110558820Y-116003925D01*
X110659131Y-115984155D01*
X110753894Y-115969421D01*
X110849237Y-115959081D01*
X110951286Y-115952491D01*
X111066165Y-115949009D01*
X111193713Y-115948039D01*
X111200000Y-115947992D01*
X111333958Y-115949007D01*
G37*
%TD*%
M02*
