M48
; DRILL file {KiCad 8.0.9-8.0.9-0~ubuntu24.04.1} date 2025-09-28T08:39:35-0500
; FORMAT={3:3/ absolute / metric / suppress leading zeros}
; #@! TF.CreationDate,2025-09-28T08:39:35-05:00
; #@! TF.GenerationSoftware,Kicad,Pcbnew,8.0.9-8.0.9-0~ubuntu24.04.1
; #@! TF.FileFunction,Plated,1,2,PTH
FMAT,2
METRIC,TZ
; #@! TA.AperFunction,Plated,PTH,ViaDrill
T1C0.254
; #@! TA.AperFunction,Plated,PTH,ComponentDrill
T2C0.730
; #@! TA.AperFunction,Plated,PTH,ComponentDrill
T3C1.000
; #@! TA.AperFunction,Plated,PTH,ComponentDrill
T4C1.001
; #@! TA.AperFunction,Plated,PTH,ComponentDrill
T5C1.016
; #@! TA.AperFunction,Plated,PTH,ComponentDrill
T6C1.300
%
G90
G05
T1
X115500Y-136000
T2
X109000Y-100800
X110500Y-100800
X112000Y-100800
X113500Y-100800
X115000Y-100800
X116500Y-100800
X118000Y-100800
T4
X115210Y-125300
X117750Y-125300
X120290Y-125300
T5
X100000Y-100000
X100000Y-102540
X100000Y-105080
X100000Y-107620
X100000Y-110160
X100000Y-112700
X100000Y-115240
X100000Y-117780
X100000Y-120320
X100000Y-122860
X100000Y-125400
X100000Y-127940
X100000Y-130480
X100000Y-133020
X100000Y-135560
X125400Y-100000
X125400Y-102540
X125400Y-105080
X125400Y-107620
X125400Y-110160
X125400Y-112700
X125400Y-115240
X125400Y-117780
X125400Y-120320
X125400Y-122860
X125400Y-125400
X125400Y-127940
X125400Y-130480
X125400Y-133020
X125400Y-135560
T6
X103750Y-143256
X108750Y-143256
T3
G00X117600Y-138550
M15
G01X119800Y-138550
M16
G05
G00X117600Y-144800
M15
G01X119800Y-144800
M16
G05
G00X123500Y-142650
M15
G01X123500Y-140450
M16
G05
M30
