%TF.GenerationSoftware,KiCad,Pcbnew,8.0.9-8.0.9-0~ubuntu24.04.1*%
%TF.CreationDate,2025-09-28T08:39:39-05:00*%
%TF.ProjectId,esp32_doorbot,65737033-325f-4646-9f6f-72626f742e6b,rev?*%
%TF.SameCoordinates,Original*%
%TF.FileFunction,Copper,L2,Bot*%
%TF.FilePolarity,Positive*%
%FSLAX46Y46*%
G04 Gerber Fmt 4.6, Leading zero omitted, Abs format (unit mm)*
G04 Created by KiCad (PCBNEW 8.0.9-8.0.9-0~ubuntu24.04.1) date 2025-09-28 08:39:39*
%MOMM*%
%LPD*%
G01*
G04 APERTURE LIST*
G04 Aperture macros list*
%AMRoundRect*
0 Rectangle with rounded corners*
0 $1 Rounding radius*
0 $2 $3 $4 $5 $6 $7 $8 $9 X,Y pos of 4 corners*
0 Add a 4 corners polygon primitive as box body*
4,1,4,$2,$3,$4,$5,$6,$7,$8,$9,$2,$3,0*
0 Add four circle primitives for the rounded corners*
1,1,$1+$1,$2,$3*
1,1,$1+$1,$4,$5*
1,1,$1+$1,$6,$7*
1,1,$1+$1,$8,$9*
0 Add four rect primitives between the rounded corners*
20,1,$1+$1,$2,$3,$4,$5,0*
20,1,$1+$1,$4,$5,$6,$7,0*
20,1,$1+$1,$6,$7,$8,$9,0*
20,1,$1+$1,$8,$9,$2,$3,0*%
G04 Aperture macros list end*
%TA.AperFunction,ComponentPad*%
%ADD10RoundRect,0.250000X0.265000X0.615000X-0.265000X0.615000X-0.265000X-0.615000X0.265000X-0.615000X0*%
%TD*%
%TA.AperFunction,ComponentPad*%
%ADD11O,1.030000X1.730000*%
%TD*%
%TA.AperFunction,ComponentPad*%
%ADD12R,2.500000X2.500000*%
%TD*%
%TA.AperFunction,ComponentPad*%
%ADD13C,2.500000*%
%TD*%
%TA.AperFunction,ComponentPad*%
%ADD14O,4.200000X2.000000*%
%TD*%
%TA.AperFunction,ComponentPad*%
%ADD15O,2.000000X4.200000*%
%TD*%
%TA.AperFunction,ComponentPad*%
%ADD16R,2.032000X1.727200*%
%TD*%
%TA.AperFunction,ComponentPad*%
%ADD17O,2.032000X1.727200*%
%TD*%
%TA.AperFunction,ComponentPad*%
%ADD18O,1.501140X2.499360*%
%TD*%
%TA.AperFunction,ViaPad*%
%ADD19C,0.508000*%
%TD*%
%TA.AperFunction,Conductor*%
%ADD20C,0.152400*%
%TD*%
G04 APERTURE END LIST*
D10*
%TO.P,J1,1,Pin_1*%
%TO.N,GND*%
X118000000Y-100800000D03*
D11*
%TO.P,J1,2,Pin_2*%
%TO.N,12V*%
X116500000Y-100800000D03*
%TO.P,J1,3,Pin_3*%
%TO.N,WIEGAND_IN1*%
X115000000Y-100800000D03*
%TO.P,J1,4,Pin_4*%
%TO.N,WIEGAND_IN2*%
X113500000Y-100800000D03*
%TO.P,J1,5,Pin_5*%
%TO.N,READER_BUZZ*%
X112000000Y-100800000D03*
%TO.P,J1,6,Pin_6*%
%TO.N,READER_LED*%
X110500000Y-100800000D03*
%TO.P,J1,7,Pin_7*%
%TO.N,24_32_SWITCH*%
X109000000Y-100800000D03*
%TD*%
D12*
%TO.P,J2,1,Pin_1*%
%TO.N,LATCH_OUT*%
X103750000Y-143256000D03*
D13*
%TO.P,J2,2,Pin_2*%
%TO.N,12V*%
X108750000Y-143256000D03*
%TD*%
D14*
%TO.P,J3,1*%
%TO.N,12V*%
X118700000Y-138550000D03*
%TO.P,J3,2*%
%TO.N,GND*%
X118700000Y-144800000D03*
D15*
X123500000Y-141550000D03*
%TD*%
D16*
%TO.P,J4,1,Pin_1*%
%TO.N,unconnected-(J4-Pin_1-Pad1)*%
X100000000Y-100000000D03*
D17*
%TO.P,J4,2,Pin_2*%
%TO.N,unconnected-(J4-Pin_2-Pad2)*%
X100000000Y-102540000D03*
%TO.P,J4,3,Pin_3*%
%TO.N,unconnected-(J4-Pin_3-Pad3)*%
X100000000Y-105080000D03*
%TO.P,J4,4,Pin_4*%
%TO.N,24_32_SWITCH*%
X100000000Y-107620000D03*
%TO.P,J4,5,Pin_5*%
%TO.N,READER_LED*%
X100000000Y-110160000D03*
%TO.P,J4,6,Pin_6*%
%TO.N,READER_BUZZ*%
X100000000Y-112700000D03*
%TO.P,J4,7,Pin_7*%
%TO.N,unconnected-(J4-Pin_7-Pad7)*%
X100000000Y-115240000D03*
%TO.P,J4,8,Pin_8*%
%TO.N,unconnected-(J4-Pin_8-Pad8)*%
X100000000Y-117780000D03*
%TO.P,J4,9,Pin_9*%
%TO.N,unconnected-(J4-Pin_9-Pad9)*%
X100000000Y-120320000D03*
%TO.P,J4,10,Pin_10*%
%TO.N,unconnected-(J4-Pin_10-Pad10)*%
X100000000Y-122860000D03*
%TO.P,J4,11,Pin_11*%
%TO.N,unconnected-(J4-Pin_11-Pad11)*%
X100000000Y-125400000D03*
%TO.P,J4,12,Pin_12*%
%TO.N,unconnected-(J4-Pin_12-Pad12)*%
X100000000Y-127940000D03*
%TO.P,J4,13,Pin_13*%
%TO.N,DOOR*%
X100000000Y-130480000D03*
%TO.P,J4,14,Pin_14*%
%TO.N,GND*%
X100000000Y-133020000D03*
%TO.P,J4,15,Pin_15*%
%TO.N,5V*%
X100000000Y-135560000D03*
%TD*%
D16*
%TO.P,J5,1,Pin_1*%
%TO.N,WIEGAND_OUT2*%
X125400000Y-100000000D03*
D17*
%TO.P,J5,2,Pin_2*%
%TO.N,WIEGAND_OUT1*%
X125400000Y-102540000D03*
%TO.P,J5,3,Pin_3*%
%TO.N,unconnected-(J5-Pin_3-Pad3)*%
X125400000Y-105080000D03*
%TO.P,J5,4,Pin_4*%
%TO.N,unconnected-(J5-Pin_4-Pad4)*%
X125400000Y-107620000D03*
%TO.P,J5,5,Pin_5*%
%TO.N,unconnected-(J5-Pin_5-Pad5)*%
X125400000Y-110160000D03*
%TO.P,J5,6,Pin_6*%
%TO.N,unconnected-(J5-Pin_6-Pad6)*%
X125400000Y-112700000D03*
%TO.P,J5,7,Pin_7*%
%TO.N,unconnected-(J5-Pin_7-Pad7)*%
X125400000Y-115240000D03*
%TO.P,J5,8,Pin_8*%
%TO.N,unconnected-(J5-Pin_8-Pad8)*%
X125400000Y-117780000D03*
%TO.P,J5,9,Pin_9*%
%TO.N,unconnected-(J5-Pin_9-Pad9)*%
X125400000Y-120320000D03*
%TO.P,J5,10,Pin_10*%
%TO.N,unconnected-(J5-Pin_10-Pad10)*%
X125400000Y-122860000D03*
%TO.P,J5,11,Pin_11*%
%TO.N,unconnected-(J5-Pin_11-Pad11)*%
X125400000Y-125400000D03*
%TO.P,J5,12,Pin_12*%
%TO.N,unconnected-(J5-Pin_12-Pad12)*%
X125400000Y-127940000D03*
%TO.P,J5,13,Pin_13*%
%TO.N,unconnected-(J5-Pin_13-Pad13)*%
X125400000Y-130480000D03*
%TO.P,J5,14,Pin_14*%
%TO.N,GND*%
X125400000Y-133020000D03*
%TO.P,J5,15,Pin_15*%
%TO.N,unconnected-(J5-Pin_15-Pad15)*%
X125400000Y-135560000D03*
%TD*%
D18*
%TO.P,U1,1,IN*%
%TO.N,12V*%
X115210000Y-125300000D03*
%TO.P,U1,2,GND*%
%TO.N,GND*%
X117750000Y-125300000D03*
%TO.P,U1,3,OUT*%
%TO.N,5V*%
X120290000Y-125300000D03*
%TD*%
D19*
%TO.N,5V*%
X115500000Y-136000000D03*
%TD*%
D20*
%TO.N,12V*%
X116500000Y-103000000D02*
X116500000Y-100800000D01*
X120000000Y-103700000D02*
X117200000Y-103700000D01*
X120904000Y-116246000D02*
X120904000Y-104604000D01*
X115210000Y-125300000D02*
X115210000Y-121940000D01*
X120904000Y-104604000D02*
X120000000Y-103700000D01*
X116500000Y-100700000D02*
X116500000Y-100800000D01*
X115210000Y-121940000D02*
X120904000Y-116246000D01*
X117200000Y-103700000D02*
X116500000Y-103000000D01*
%TO.N,5V*%
X115500000Y-136000000D02*
X100440000Y-136000000D01*
X100440000Y-136000000D02*
X100000000Y-135560000D01*
%TO.N,24_32_SWITCH*%
X106820000Y-100800000D02*
X109000000Y-100800000D01*
X100000000Y-107620000D02*
X106820000Y-100800000D01*
%TO.N,READER_LED*%
X100000000Y-110160000D02*
X108204000Y-101956000D01*
X109344000Y-101956000D02*
X110500000Y-100800000D01*
X108204000Y-101956000D02*
X109344000Y-101956000D01*
%TO.N,READER_BUZZ*%
X110744000Y-101956000D02*
X110844000Y-101956000D01*
X110844000Y-101956000D02*
X112000000Y-100800000D01*
X100000000Y-112700000D02*
X110744000Y-101956000D01*
%TD*%
%TA.AperFunction,Conductor*%
%TO.N,GND*%
G36*
X127166621Y-98045502D02*
G01*
X127213114Y-98099158D01*
X127224500Y-98151500D01*
X127224500Y-149598500D01*
X127204498Y-149666621D01*
X127150842Y-149713114D01*
X127098500Y-149724500D01*
X98151500Y-149724500D01*
X98083379Y-149704498D01*
X98036886Y-149650842D01*
X98025500Y-149598500D01*
X98025500Y-141957350D01*
X101991500Y-141957350D01*
X101991500Y-144554649D01*
X101998009Y-144615196D01*
X101998011Y-144615204D01*
X102049110Y-144752202D01*
X102049112Y-144752207D01*
X102136738Y-144869261D01*
X102253792Y-144956887D01*
X102253794Y-144956888D01*
X102253796Y-144956889D01*
X102312875Y-144978924D01*
X102390795Y-145007988D01*
X102390803Y-145007990D01*
X102451350Y-145014499D01*
X102451355Y-145014499D01*
X102451362Y-145014500D01*
X102451368Y-145014500D01*
X105048632Y-145014500D01*
X105048638Y-145014500D01*
X105048645Y-145014499D01*
X105048649Y-145014499D01*
X105109196Y-145007990D01*
X105109199Y-145007989D01*
X105109201Y-145007989D01*
X105246204Y-144956889D01*
X105325492Y-144897535D01*
X105363261Y-144869261D01*
X105450887Y-144752207D01*
X105450887Y-144752206D01*
X105450889Y-144752204D01*
X105501989Y-144615201D01*
X105508500Y-144554638D01*
X105508500Y-143256000D01*
X106986569Y-143256000D01*
X107006265Y-143518826D01*
X107006266Y-143518830D01*
X107064911Y-143775775D01*
X107161202Y-144021120D01*
X107161205Y-144021128D01*
X107292982Y-144249372D01*
X107292984Y-144249375D01*
X107292985Y-144249376D01*
X107457314Y-144455438D01*
X107650519Y-144634706D01*
X107650525Y-144634710D01*
X107868275Y-144783170D01*
X107868279Y-144783172D01*
X107868285Y-144783176D01*
X108105746Y-144897532D01*
X108105749Y-144897532D01*
X108105754Y-144897535D01*
X108357589Y-144975215D01*
X108357591Y-144975215D01*
X108357600Y-144975218D01*
X108618219Y-145014500D01*
X108618223Y-145014500D01*
X108881777Y-145014500D01*
X108881781Y-145014500D01*
X109142400Y-144975218D01*
X109201822Y-144956889D01*
X109394245Y-144897535D01*
X109394247Y-144897534D01*
X109394254Y-144897532D01*
X109631716Y-144783176D01*
X109849481Y-144634706D01*
X109945083Y-144546000D01*
X116113432Y-144546000D01*
X117169297Y-144546000D01*
X117134075Y-144607007D01*
X117100000Y-144734174D01*
X117100000Y-144865826D01*
X117134075Y-144992993D01*
X117169297Y-145054000D01*
X116113432Y-145054000D01*
X116129133Y-145153128D01*
X116202480Y-145378867D01*
X116310245Y-145590367D01*
X116449764Y-145782398D01*
X116449766Y-145782401D01*
X116617598Y-145950233D01*
X116617601Y-145950235D01*
X116809632Y-146089754D01*
X117021132Y-146197519D01*
X117246870Y-146270866D01*
X117481321Y-146308000D01*
X118446000Y-146308000D01*
X118446000Y-145300000D01*
X118954000Y-145300000D01*
X118954000Y-146308000D01*
X119918679Y-146308000D01*
X120153129Y-146270866D01*
X120378867Y-146197519D01*
X120590367Y-146089754D01*
X120782398Y-145950235D01*
X120782401Y-145950233D01*
X120950233Y-145782401D01*
X120950235Y-145782398D01*
X121089754Y-145590367D01*
X121197519Y-145378867D01*
X121270866Y-145153128D01*
X121286568Y-145054000D01*
X120230703Y-145054000D01*
X120265925Y-144992993D01*
X120300000Y-144865826D01*
X120300000Y-144734174D01*
X120265925Y-144607007D01*
X120230703Y-144546000D01*
X121286567Y-144546000D01*
X121270866Y-144446871D01*
X121197519Y-144221132D01*
X121089754Y-144009632D01*
X120950235Y-143817601D01*
X120950233Y-143817598D01*
X120782401Y-143649766D01*
X120782398Y-143649764D01*
X120590367Y-143510245D01*
X120378867Y-143402480D01*
X120153129Y-143329133D01*
X119918679Y-143292000D01*
X118954000Y-143292000D01*
X118954000Y-144300000D01*
X118446000Y-144300000D01*
X118446000Y-143292000D01*
X117481321Y-143292000D01*
X117246870Y-143329133D01*
X117021132Y-143402480D01*
X116809632Y-143510245D01*
X116617601Y-143649764D01*
X116617598Y-143649766D01*
X116449766Y-143817598D01*
X116449764Y-143817601D01*
X116310245Y-144009632D01*
X116202480Y-144221132D01*
X116129133Y-144446871D01*
X116113432Y-144546000D01*
X109945083Y-144546000D01*
X110042686Y-144455438D01*
X110207015Y-144249376D01*
X110338796Y-144021124D01*
X110435087Y-143775780D01*
X110493735Y-143518826D01*
X110513431Y-143256000D01*
X110493735Y-142993174D01*
X110435087Y-142736220D01*
X110338796Y-142490876D01*
X110338795Y-142490875D01*
X110338794Y-142490871D01*
X110207017Y-142262627D01*
X110207015Y-142262624D01*
X110042686Y-142056562D01*
X109849481Y-141877294D01*
X109849474Y-141877289D01*
X109631725Y-141728829D01*
X109631718Y-141728825D01*
X109394257Y-141614469D01*
X109394245Y-141614464D01*
X109142410Y-141536784D01*
X109142402Y-141536782D01*
X109142400Y-141536782D01*
X108881781Y-141497500D01*
X108618219Y-141497500D01*
X108357600Y-141536782D01*
X108357598Y-141536782D01*
X108357589Y-141536784D01*
X108105754Y-141614464D01*
X108105742Y-141614469D01*
X107868283Y-141728825D01*
X107868275Y-141728829D01*
X107650525Y-141877289D01*
X107650520Y-141877293D01*
X107457315Y-142056561D01*
X107292982Y-142262627D01*
X107161205Y-142490871D01*
X107161202Y-142490879D01*
X107064911Y-142736224D01*
X107014520Y-142957007D01*
X107006265Y-142993174D01*
X106986569Y-143256000D01*
X105508500Y-143256000D01*
X105508500Y-141957362D01*
X105508499Y-141957350D01*
X105501990Y-141896803D01*
X105501988Y-141896795D01*
X105450889Y-141759797D01*
X105450887Y-141759792D01*
X105363261Y-141642738D01*
X105246207Y-141555112D01*
X105246202Y-141555110D01*
X105109204Y-141504011D01*
X105109196Y-141504009D01*
X105048649Y-141497500D01*
X105048638Y-141497500D01*
X102451362Y-141497500D01*
X102451350Y-141497500D01*
X102390803Y-141504009D01*
X102390795Y-141504011D01*
X102253797Y-141555110D01*
X102253792Y-141555112D01*
X102136738Y-141642738D01*
X102049112Y-141759792D01*
X102049110Y-141759797D01*
X101998011Y-141896795D01*
X101998009Y-141896803D01*
X101991500Y-141957350D01*
X98025500Y-141957350D01*
X98025500Y-140331321D01*
X121992000Y-140331321D01*
X121992000Y-141296000D01*
X123000000Y-141296000D01*
X123000000Y-141804000D01*
X121992000Y-141804000D01*
X121992000Y-142768678D01*
X122029133Y-143003129D01*
X122102480Y-143228867D01*
X122210245Y-143440367D01*
X122349764Y-143632398D01*
X122349766Y-143632401D01*
X122517598Y-143800233D01*
X122517601Y-143800235D01*
X122709632Y-143939754D01*
X122921132Y-144047519D01*
X123146871Y-144120866D01*
X123246000Y-144136566D01*
X123246000Y-143080702D01*
X123307007Y-143115925D01*
X123434174Y-143150000D01*
X123565826Y-143150000D01*
X123692993Y-143115925D01*
X123754000Y-143080702D01*
X123754000Y-144136566D01*
X123853128Y-144120866D01*
X124078867Y-144047519D01*
X124290367Y-143939754D01*
X124482398Y-143800235D01*
X124482401Y-143800233D01*
X124650233Y-143632401D01*
X124650235Y-143632398D01*
X124789754Y-143440367D01*
X124897519Y-143228867D01*
X124970866Y-143003129D01*
X125008000Y-142768678D01*
X125008000Y-141804000D01*
X124000000Y-141804000D01*
X124000000Y-141296000D01*
X125008000Y-141296000D01*
X125008000Y-140331321D01*
X124970866Y-140096870D01*
X124897519Y-139871132D01*
X124789754Y-139659632D01*
X124650235Y-139467601D01*
X124650233Y-139467598D01*
X124482401Y-139299766D01*
X124482398Y-139299764D01*
X124290367Y-139160245D01*
X124078867Y-139052480D01*
X123853128Y-138979133D01*
X123754000Y-138963432D01*
X123754000Y-140019297D01*
X123692993Y-139984075D01*
X123565826Y-139950000D01*
X123434174Y-139950000D01*
X123307007Y-139984075D01*
X123246000Y-140019297D01*
X123246000Y-138963432D01*
X123146871Y-138979133D01*
X122921132Y-139052480D01*
X122709632Y-139160245D01*
X122517601Y-139299764D01*
X122517598Y-139299766D01*
X122349766Y-139467598D01*
X122349764Y-139467601D01*
X122210245Y-139659632D01*
X122102480Y-139871132D01*
X122029133Y-140096870D01*
X121992000Y-140331321D01*
X98025500Y-140331321D01*
X98025500Y-138431278D01*
X116091500Y-138431278D01*
X116091500Y-138668722D01*
X116128644Y-138903241D01*
X116128645Y-138903246D01*
X116202016Y-139129058D01*
X116202018Y-139129063D01*
X116309815Y-139340627D01*
X116449380Y-139532722D01*
X116449382Y-139532724D01*
X116449384Y-139532727D01*
X116617272Y-139700615D01*
X116617275Y-139700617D01*
X116617278Y-139700620D01*
X116809373Y-139840185D01*
X117020937Y-139947982D01*
X117246759Y-140021356D01*
X117481278Y-140058500D01*
X117481281Y-140058500D01*
X119918719Y-140058500D01*
X119918722Y-140058500D01*
X120153241Y-140021356D01*
X120379063Y-139947982D01*
X120590627Y-139840185D01*
X120782722Y-139700620D01*
X120950620Y-139532722D01*
X121090185Y-139340627D01*
X121197982Y-139129063D01*
X121271356Y-138903241D01*
X121308500Y-138668722D01*
X121308500Y-138431278D01*
X121271356Y-138196759D01*
X121197982Y-137970937D01*
X121090185Y-137759373D01*
X120950620Y-137567278D01*
X120950617Y-137567275D01*
X120950615Y-137567272D01*
X120782727Y-137399384D01*
X120782724Y-137399382D01*
X120782722Y-137399380D01*
X120590627Y-137259815D01*
X120379063Y-137152018D01*
X120379060Y-137152017D01*
X120379058Y-137152016D01*
X120153246Y-137078645D01*
X120153242Y-137078644D01*
X120153241Y-137078644D01*
X119918722Y-137041500D01*
X117481278Y-137041500D01*
X117246759Y-137078644D01*
X117246753Y-137078645D01*
X117020941Y-137152016D01*
X117020935Y-137152019D01*
X116809369Y-137259817D01*
X116617275Y-137399382D01*
X116617272Y-137399384D01*
X116449384Y-137567272D01*
X116449382Y-137567275D01*
X116309817Y-137759369D01*
X116202019Y-137970935D01*
X116202016Y-137970941D01*
X116128645Y-138196753D01*
X116128644Y-138196758D01*
X116128644Y-138196759D01*
X116091500Y-138431278D01*
X98025500Y-138431278D01*
X98025500Y-99087750D01*
X98475500Y-99087750D01*
X98475500Y-100912249D01*
X98482009Y-100972796D01*
X98482011Y-100972804D01*
X98533110Y-101109802D01*
X98533112Y-101109807D01*
X98620738Y-101226861D01*
X98737792Y-101314487D01*
X98737794Y-101314488D01*
X98737796Y-101314489D01*
X98786974Y-101332831D01*
X98841700Y-101353244D01*
X98898536Y-101395791D01*
X98923346Y-101462311D01*
X98908254Y-101531685D01*
X98886763Y-101560394D01*
X98801021Y-101646136D01*
X98674077Y-101820859D01*
X98576024Y-102013297D01*
X98509285Y-102218696D01*
X98509285Y-102218699D01*
X98476789Y-102423878D01*
X98475500Y-102432015D01*
X98475500Y-102647984D01*
X98509285Y-102861303D01*
X98576024Y-103066702D01*
X98576025Y-103066704D01*
X98674075Y-103259137D01*
X98801021Y-103433863D01*
X98801023Y-103433865D01*
X98801025Y-103433868D01*
X98953734Y-103586577D01*
X99120946Y-103708064D01*
X99164300Y-103764287D01*
X99170375Y-103835023D01*
X99137243Y-103897814D01*
X99120946Y-103911936D01*
X98953734Y-104033422D01*
X98801025Y-104186131D01*
X98801023Y-104186134D01*
X98674077Y-104360859D01*
X98576024Y-104553297D01*
X98509285Y-104758696D01*
X98509285Y-104758699D01*
X98475502Y-104972004D01*
X98475500Y-104972015D01*
X98475500Y-105187984D01*
X98509285Y-105401303D01*
X98576024Y-105606702D01*
X98576025Y-105606704D01*
X98674075Y-105799137D01*
X98801021Y-105973863D01*
X98801023Y-105973865D01*
X98801025Y-105973868D01*
X98953734Y-106126577D01*
X99120946Y-106248064D01*
X99164300Y-106304287D01*
X99170375Y-106375023D01*
X99137243Y-106437814D01*
X99120946Y-106451936D01*
X98953734Y-106573422D01*
X98801025Y-106726131D01*
X98801023Y-106726134D01*
X98674077Y-106900859D01*
X98576024Y-107093297D01*
X98509285Y-107298696D01*
X98475500Y-107512015D01*
X98475500Y-107727984D01*
X98509285Y-107941303D01*
X98576024Y-108146702D01*
X98576025Y-108146704D01*
X98674075Y-108339137D01*
X98801021Y-108513863D01*
X98801023Y-108513865D01*
X98801025Y-108513868D01*
X98953734Y-108666577D01*
X99120946Y-108788064D01*
X99164300Y-108844287D01*
X99170375Y-108915023D01*
X99137243Y-108977814D01*
X99120946Y-108991936D01*
X98953734Y-109113422D01*
X98801025Y-109266131D01*
X98801023Y-109266134D01*
X98674077Y-109440859D01*
X98576024Y-109633297D01*
X98509285Y-109838696D01*
X98509285Y-109838699D01*
X98475502Y-110052004D01*
X98475500Y-110052015D01*
X98475500Y-110267984D01*
X98509285Y-110481303D01*
X98576024Y-110686702D01*
X98576025Y-110686704D01*
X98674075Y-110879137D01*
X98801021Y-111053863D01*
X98801023Y-111053865D01*
X98801025Y-111053868D01*
X98953734Y-111206577D01*
X99120946Y-111328064D01*
X99164300Y-111384287D01*
X99170375Y-111455023D01*
X99137243Y-111517814D01*
X99120946Y-111531936D01*
X98953734Y-111653422D01*
X98801025Y-111806131D01*
X98801023Y-111806134D01*
X98674077Y-111980859D01*
X98576024Y-112173297D01*
X98509285Y-112378696D01*
X98475500Y-112592015D01*
X98475500Y-112807984D01*
X98509285Y-113021303D01*
X98576024Y-113226702D01*
X98576025Y-113226704D01*
X98674075Y-113419137D01*
X98801021Y-113593863D01*
X98801023Y-113593865D01*
X98801025Y-113593868D01*
X98953734Y-113746577D01*
X99120946Y-113868064D01*
X99164300Y-113924287D01*
X99170375Y-113995023D01*
X99137243Y-114057814D01*
X99120946Y-114071936D01*
X98953734Y-114193422D01*
X98801025Y-114346131D01*
X98801023Y-114346134D01*
X98674077Y-114520859D01*
X98576024Y-114713297D01*
X98509285Y-114918696D01*
X98475500Y-115132015D01*
X98475500Y-115347984D01*
X98509285Y-115561303D01*
X98576024Y-115766702D01*
X98576025Y-115766704D01*
X98674075Y-115959137D01*
X98801021Y-116133863D01*
X98801023Y-116133865D01*
X98801025Y-116133868D01*
X98953734Y-116286577D01*
X99120946Y-116408064D01*
X99164300Y-116464287D01*
X99170375Y-116535023D01*
X99137243Y-116597814D01*
X99120946Y-116611936D01*
X98953734Y-116733422D01*
X98801025Y-116886131D01*
X98801023Y-116886134D01*
X98674077Y-117060859D01*
X98576024Y-117253297D01*
X98509285Y-117458696D01*
X98475500Y-117672015D01*
X98475500Y-117887984D01*
X98509285Y-118101303D01*
X98576024Y-118306702D01*
X98576025Y-118306704D01*
X98674075Y-118499137D01*
X98801021Y-118673863D01*
X98801023Y-118673865D01*
X98801025Y-118673868D01*
X98953734Y-118826577D01*
X99120946Y-118948064D01*
X99164300Y-119004287D01*
X99170375Y-119075023D01*
X99137243Y-119137814D01*
X99120946Y-119151936D01*
X98953734Y-119273422D01*
X98801025Y-119426131D01*
X98801023Y-119426134D01*
X98674077Y-119600859D01*
X98576024Y-119793297D01*
X98509285Y-119998696D01*
X98475500Y-120212015D01*
X98475500Y-120427984D01*
X98509285Y-120641303D01*
X98576024Y-120846702D01*
X98576025Y-120846704D01*
X98674075Y-121039137D01*
X98801021Y-121213863D01*
X98801023Y-121213865D01*
X98801025Y-121213868D01*
X98953734Y-121366577D01*
X99120946Y-121488064D01*
X99164300Y-121544287D01*
X99170375Y-121615023D01*
X99137243Y-121677814D01*
X99120946Y-121691936D01*
X98953734Y-121813422D01*
X98801025Y-121966131D01*
X98801023Y-121966134D01*
X98674077Y-122140859D01*
X98576024Y-122333297D01*
X98509285Y-122538696D01*
X98475500Y-122752015D01*
X98475500Y-122967984D01*
X98509285Y-123181303D01*
X98576024Y-123386702D01*
X98576025Y-123386704D01*
X98674075Y-123579137D01*
X98801021Y-123753863D01*
X98801023Y-123753865D01*
X98801025Y-123753868D01*
X98953734Y-123906577D01*
X99120946Y-124028064D01*
X99164300Y-124084287D01*
X99170375Y-124155023D01*
X99137243Y-124217814D01*
X99120946Y-124231936D01*
X98953734Y-124353422D01*
X98801025Y-124506131D01*
X98801023Y-124506134D01*
X98674077Y-124680859D01*
X98576024Y-124873297D01*
X98509285Y-125078696D01*
X98475500Y-125292015D01*
X98475500Y-125507984D01*
X98509285Y-125721303D01*
X98576024Y-125926702D01*
X98576025Y-125926704D01*
X98674075Y-126119137D01*
X98801021Y-126293863D01*
X98801023Y-126293865D01*
X98801025Y-126293868D01*
X98953734Y-126446577D01*
X99120946Y-126568064D01*
X99164300Y-126624287D01*
X99170375Y-126695023D01*
X99137243Y-126757814D01*
X99120946Y-126771936D01*
X98953734Y-126893422D01*
X98801025Y-127046131D01*
X98801023Y-127046134D01*
X98674077Y-127220859D01*
X98576024Y-127413297D01*
X98509285Y-127618696D01*
X98475500Y-127832015D01*
X98475500Y-128047984D01*
X98509285Y-128261303D01*
X98576024Y-128466702D01*
X98576025Y-128466704D01*
X98674075Y-128659137D01*
X98801021Y-128833863D01*
X98801023Y-128833865D01*
X98801025Y-128833868D01*
X98953734Y-128986577D01*
X99120946Y-129108064D01*
X99164300Y-129164287D01*
X99170375Y-129235023D01*
X99137243Y-129297814D01*
X99120946Y-129311936D01*
X98953734Y-129433422D01*
X98801025Y-129586131D01*
X98801023Y-129586134D01*
X98674077Y-129760859D01*
X98576024Y-129953297D01*
X98509285Y-130158696D01*
X98475500Y-130372015D01*
X98475500Y-130587984D01*
X98509285Y-130801303D01*
X98576024Y-131006702D01*
X98576025Y-131006704D01*
X98674075Y-131199137D01*
X98801021Y-131373863D01*
X98801023Y-131373865D01*
X98801025Y-131373868D01*
X98953734Y-131526577D01*
X99121371Y-131648373D01*
X99164725Y-131704596D01*
X99170800Y-131775332D01*
X99137668Y-131838123D01*
X99121371Y-131852245D01*
X98954060Y-131973803D01*
X98801406Y-132126457D01*
X98801404Y-132126460D01*
X98674505Y-132301121D01*
X98576490Y-132493486D01*
X98576487Y-132493492D01*
X98509775Y-132698809D01*
X98499133Y-132766000D01*
X99560058Y-132766000D01*
X99526619Y-132823919D01*
X99492000Y-132953120D01*
X99492000Y-133086880D01*
X99526619Y-133216081D01*
X99560058Y-133274000D01*
X98499133Y-133274000D01*
X98509775Y-133341190D01*
X98576487Y-133546507D01*
X98576490Y-133546513D01*
X98674505Y-133738878D01*
X98801404Y-133913539D01*
X98801406Y-133913542D01*
X98954057Y-134066193D01*
X98954060Y-134066195D01*
X99121371Y-134187754D01*
X99164725Y-134243976D01*
X99170800Y-134314712D01*
X99137669Y-134377504D01*
X99121372Y-134391626D01*
X98953730Y-134513426D01*
X98801025Y-134666131D01*
X98801023Y-134666134D01*
X98674077Y-134840859D01*
X98576024Y-135033297D01*
X98509285Y-135238696D01*
X98498149Y-135309011D01*
X98483726Y-135400079D01*
X98475500Y-135452015D01*
X98475500Y-135667984D01*
X98509285Y-135881303D01*
X98576024Y-136086702D01*
X98576025Y-136086704D01*
X98674075Y-136279137D01*
X98801021Y-136453863D01*
X98801023Y-136453865D01*
X98801025Y-136453868D01*
X98953731Y-136606574D01*
X98953734Y-136606576D01*
X98953737Y-136606579D01*
X99128463Y-136733525D01*
X99320896Y-136831575D01*
X99526299Y-136898315D01*
X99739613Y-136932100D01*
X99739615Y-136932100D01*
X100260385Y-136932100D01*
X100260387Y-136932100D01*
X100473701Y-136898315D01*
X100679104Y-136831575D01*
X100871537Y-136733525D01*
X101043256Y-136608763D01*
X101110122Y-136584906D01*
X101117316Y-136584700D01*
X114961059Y-136584700D01*
X115028095Y-136604013D01*
X115167066Y-136691334D01*
X115167067Y-136691334D01*
X115167070Y-136691336D01*
X115329254Y-136748087D01*
X115329253Y-136748087D01*
X115346543Y-136750034D01*
X115500000Y-136767325D01*
X115670746Y-136748087D01*
X115832930Y-136691336D01*
X115978419Y-136599919D01*
X116099919Y-136478419D01*
X116191336Y-136332930D01*
X116248087Y-136170746D01*
X116267325Y-136000000D01*
X116248087Y-135829254D01*
X116191336Y-135667070D01*
X116191334Y-135667067D01*
X116191334Y-135667066D01*
X116099920Y-135521582D01*
X116099919Y-135521580D01*
X115978419Y-135400080D01*
X115978417Y-135400079D01*
X115832933Y-135308665D01*
X115832930Y-135308664D01*
X115670746Y-135251913D01*
X115670744Y-135251912D01*
X115670746Y-135251912D01*
X115500000Y-135232675D01*
X115329255Y-135251912D01*
X115167069Y-135308664D01*
X115167066Y-135308665D01*
X115028095Y-135395987D01*
X114961059Y-135415300D01*
X101626300Y-135415300D01*
X101558179Y-135395298D01*
X101511686Y-135341642D01*
X101501851Y-135309011D01*
X101501755Y-135308405D01*
X101490715Y-135238699D01*
X101423975Y-135033296D01*
X101325925Y-134840863D01*
X101198979Y-134666137D01*
X101198976Y-134666134D01*
X101198974Y-134666131D01*
X101046265Y-134513422D01*
X100878628Y-134391626D01*
X100835274Y-134335403D01*
X100829199Y-134264667D01*
X100862331Y-134201875D01*
X100878628Y-134187754D01*
X101045939Y-134066195D01*
X101045942Y-134066193D01*
X101198593Y-133913542D01*
X101198595Y-133913539D01*
X101325494Y-133738878D01*
X101423509Y-133546513D01*
X101423512Y-133546507D01*
X101490224Y-133341190D01*
X101500867Y-133274000D01*
X100439942Y-133274000D01*
X100473381Y-133216081D01*
X100508000Y-133086880D01*
X100508000Y-132953120D01*
X100473381Y-132823919D01*
X100439942Y-132766000D01*
X101500866Y-132766000D01*
X101490224Y-132698809D01*
X101423512Y-132493492D01*
X101423509Y-132493486D01*
X101325494Y-132301121D01*
X101198595Y-132126460D01*
X101198593Y-132126457D01*
X101045942Y-131973806D01*
X101045939Y-131973804D01*
X100878628Y-131852245D01*
X100835274Y-131796023D01*
X100829199Y-131725287D01*
X100862330Y-131662495D01*
X100878628Y-131648373D01*
X101046263Y-131526579D01*
X101198979Y-131373863D01*
X101325925Y-131199137D01*
X101423975Y-131006704D01*
X101490715Y-130801301D01*
X101524500Y-130587987D01*
X101524500Y-130372013D01*
X101490715Y-130158699D01*
X101423975Y-129953296D01*
X101325925Y-129760863D01*
X101198979Y-129586137D01*
X101198976Y-129586134D01*
X101198974Y-129586131D01*
X101046268Y-129433425D01*
X101046265Y-129433423D01*
X101046264Y-129433422D01*
X101046263Y-129433421D01*
X100879052Y-129311935D01*
X100835699Y-129255714D01*
X100829624Y-129184978D01*
X100862755Y-129122186D01*
X100879053Y-129108064D01*
X101046263Y-128986579D01*
X101198979Y-128833863D01*
X101325925Y-128659137D01*
X101423975Y-128466704D01*
X101490715Y-128261301D01*
X101524500Y-128047987D01*
X101524500Y-127832013D01*
X101490715Y-127618699D01*
X101423975Y-127413296D01*
X101325925Y-127220863D01*
X101198979Y-127046137D01*
X101198976Y-127046134D01*
X101198974Y-127046131D01*
X101046268Y-126893425D01*
X101046265Y-126893423D01*
X101046264Y-126893422D01*
X101046263Y-126893421D01*
X100879052Y-126771935D01*
X100835699Y-126715714D01*
X100829624Y-126644978D01*
X100862755Y-126582186D01*
X100879053Y-126568064D01*
X101046263Y-126446579D01*
X101198979Y-126293863D01*
X101325925Y-126119137D01*
X101423975Y-125926704D01*
X101490715Y-125721301D01*
X101524500Y-125507987D01*
X101524500Y-125292013D01*
X101490715Y-125078699D01*
X101423975Y-124873296D01*
X101325925Y-124680863D01*
X101198979Y-124506137D01*
X101198976Y-124506134D01*
X101198974Y-124506131D01*
X101046268Y-124353425D01*
X101046265Y-124353423D01*
X101046264Y-124353422D01*
X101046263Y-124353421D01*
X100879052Y-124231935D01*
X100835699Y-124175714D01*
X100829624Y-124104978D01*
X100862755Y-124042186D01*
X100879053Y-124028064D01*
X101046263Y-123906579D01*
X101198979Y-123753863D01*
X101325925Y-123579137D01*
X101423975Y-123386704D01*
X101490715Y-123181301D01*
X101524500Y-122967987D01*
X101524500Y-122752013D01*
X101490715Y-122538699D01*
X101423975Y-122333296D01*
X101325925Y-122140863D01*
X101198979Y-121966137D01*
X101198976Y-121966134D01*
X101198974Y-121966131D01*
X101046268Y-121813425D01*
X101046265Y-121813423D01*
X101046264Y-121813422D01*
X101046263Y-121813421D01*
X100879052Y-121691935D01*
X100835699Y-121635714D01*
X100829624Y-121564978D01*
X100862755Y-121502186D01*
X100879053Y-121488064D01*
X101046263Y-121366579D01*
X101198979Y-121213863D01*
X101325925Y-121039137D01*
X101423975Y-120846704D01*
X101490715Y-120641301D01*
X101524500Y-120427987D01*
X101524500Y-120212013D01*
X101490715Y-119998699D01*
X101423975Y-119793296D01*
X101325925Y-119600863D01*
X101198979Y-119426137D01*
X101198976Y-119426134D01*
X101198974Y-119426131D01*
X101046268Y-119273425D01*
X101046265Y-119273423D01*
X101046264Y-119273422D01*
X101046263Y-119273421D01*
X100879052Y-119151935D01*
X100835699Y-119095714D01*
X100829624Y-119024978D01*
X100862755Y-118962186D01*
X100879053Y-118948064D01*
X101046263Y-118826579D01*
X101198979Y-118673863D01*
X101325925Y-118499137D01*
X101423975Y-118306704D01*
X101490715Y-118101301D01*
X101524500Y-117887987D01*
X101524500Y-117672013D01*
X101490715Y-117458699D01*
X101423975Y-117253296D01*
X101325925Y-117060863D01*
X101198979Y-116886137D01*
X101198976Y-116886134D01*
X101198974Y-116886131D01*
X101046268Y-116733425D01*
X101046265Y-116733423D01*
X101046264Y-116733422D01*
X101046263Y-116733421D01*
X100879052Y-116611935D01*
X100835699Y-116555714D01*
X100829624Y-116484978D01*
X100862755Y-116422186D01*
X100879053Y-116408064D01*
X101046263Y-116286579D01*
X101198979Y-116133863D01*
X101325925Y-115959137D01*
X101423975Y-115766704D01*
X101490715Y-115561301D01*
X101524500Y-115347987D01*
X101524500Y-115132013D01*
X101490715Y-114918699D01*
X101423975Y-114713296D01*
X101325925Y-114520863D01*
X101198979Y-114346137D01*
X101198976Y-114346134D01*
X101198974Y-114346131D01*
X101046268Y-114193425D01*
X101046265Y-114193423D01*
X101046264Y-114193422D01*
X101046263Y-114193421D01*
X100879052Y-114071935D01*
X100835699Y-114015714D01*
X100829624Y-113944978D01*
X100862755Y-113882186D01*
X100879053Y-113868064D01*
X101046263Y-113746579D01*
X101198979Y-113593863D01*
X101325925Y-113419137D01*
X101423975Y-113226704D01*
X101490715Y-113021301D01*
X101524500Y-112807987D01*
X101524500Y-112592013D01*
X101490715Y-112378699D01*
X101430573Y-112193605D01*
X101428546Y-112122640D01*
X101461310Y-112065578D01*
X110986189Y-102540700D01*
X111042668Y-102508092D01*
X111069686Y-102500853D01*
X111203014Y-102423876D01*
X111311876Y-102315014D01*
X111494328Y-102132560D01*
X111556638Y-102098537D01*
X111627454Y-102103601D01*
X111631641Y-102105249D01*
X111701444Y-102134163D01*
X111701452Y-102134165D01*
X111701456Y-102134167D01*
X111899194Y-102173500D01*
X112100806Y-102173500D01*
X112298544Y-102134167D01*
X112484809Y-102057014D01*
X112652443Y-101945004D01*
X112660903Y-101936543D01*
X112723212Y-101902518D01*
X112794028Y-101907580D01*
X112839096Y-101936543D01*
X112847557Y-101945004D01*
X113015191Y-102057014D01*
X113201456Y-102134167D01*
X113399194Y-102173500D01*
X113600806Y-102173500D01*
X113798544Y-102134167D01*
X113984809Y-102057014D01*
X114152443Y-101945004D01*
X114160903Y-101936543D01*
X114223212Y-101902518D01*
X114294028Y-101907580D01*
X114339096Y-101936543D01*
X114347557Y-101945004D01*
X114515191Y-102057014D01*
X114701456Y-102134167D01*
X114899194Y-102173500D01*
X115100806Y-102173500D01*
X115298544Y-102134167D01*
X115484809Y-102057014D01*
X115652443Y-101945004D01*
X115660903Y-101936543D01*
X115723212Y-101902518D01*
X115794028Y-101907580D01*
X115839096Y-101936543D01*
X115847557Y-101945004D01*
X115859302Y-101952852D01*
X115904829Y-102007327D01*
X115915300Y-102057616D01*
X115915300Y-103076975D01*
X115915299Y-103076975D01*
X115955147Y-103225686D01*
X115974460Y-103259137D01*
X116032121Y-103359010D01*
X116032123Y-103359012D01*
X116032124Y-103359014D01*
X116840985Y-104167876D01*
X116907648Y-104206363D01*
X116907650Y-104206365D01*
X116974308Y-104244850D01*
X116974311Y-104244851D01*
X116974314Y-104244853D01*
X117123023Y-104284700D01*
X119705620Y-104284700D01*
X119773741Y-104304702D01*
X119794715Y-104321605D01*
X120282395Y-104809285D01*
X120316421Y-104871597D01*
X120319300Y-104898380D01*
X120319300Y-115951620D01*
X120299298Y-116019741D01*
X120282395Y-116040715D01*
X114850986Y-121472124D01*
X114820924Y-121502186D01*
X114742125Y-121580984D01*
X114742121Y-121580989D01*
X114665147Y-121714313D01*
X114665147Y-121714314D01*
X114638591Y-121813423D01*
X114625300Y-121863024D01*
X114625300Y-123608509D01*
X114605298Y-123676630D01*
X114556511Y-123720771D01*
X114550109Y-123724033D01*
X114550105Y-123724035D01*
X114389768Y-123840527D01*
X114389765Y-123840529D01*
X114249639Y-123980655D01*
X114249637Y-123980658D01*
X114133149Y-124140990D01*
X114043175Y-124317573D01*
X114043172Y-124317579D01*
X113981934Y-124506052D01*
X113981933Y-124506055D01*
X113981933Y-124506057D01*
X113950930Y-124701799D01*
X113950930Y-125898201D01*
X113955445Y-125926704D01*
X113981934Y-126093947D01*
X114032022Y-126248104D01*
X114043174Y-126282425D01*
X114133147Y-126459006D01*
X114249635Y-126619339D01*
X114249637Y-126619341D01*
X114249639Y-126619344D01*
X114389765Y-126759470D01*
X114389768Y-126759472D01*
X114389771Y-126759475D01*
X114550104Y-126875963D01*
X114726685Y-126965936D01*
X114915167Y-127027177D01*
X115110909Y-127058180D01*
X115110912Y-127058180D01*
X115309088Y-127058180D01*
X115309091Y-127058180D01*
X115504833Y-127027177D01*
X115693315Y-126965936D01*
X115869896Y-126875963D01*
X116030229Y-126759475D01*
X116170365Y-126619339D01*
X116286853Y-126459006D01*
X116368015Y-126299716D01*
X116416761Y-126248104D01*
X116485676Y-126231038D01*
X116552878Y-126253939D01*
X116592547Y-126299719D01*
X116673576Y-126458748D01*
X116790017Y-126619015D01*
X116930094Y-126759092D01*
X117090361Y-126875533D01*
X117266875Y-126965471D01*
X117266881Y-126965474D01*
X117455288Y-127026691D01*
X117455286Y-127026691D01*
X117495999Y-127033138D01*
X117496000Y-127033138D01*
X117496000Y-125731142D01*
X117556860Y-125766280D01*
X117684124Y-125800380D01*
X117815876Y-125800380D01*
X117943140Y-125766280D01*
X118004000Y-125731142D01*
X118004000Y-127033138D01*
X118044712Y-127026691D01*
X118233118Y-126965474D01*
X118233124Y-126965471D01*
X118409638Y-126875533D01*
X118569905Y-126759092D01*
X118709982Y-126619015D01*
X118826425Y-126458745D01*
X118907452Y-126299720D01*
X118956200Y-126248104D01*
X119025114Y-126231038D01*
X119092316Y-126253938D01*
X119131985Y-126299718D01*
X119213147Y-126459006D01*
X119329635Y-126619339D01*
X119329637Y-126619341D01*
X119329639Y-126619344D01*
X119469765Y-126759470D01*
X119469768Y-126759472D01*
X119469771Y-126759475D01*
X119630104Y-126875963D01*
X119806685Y-126965936D01*
X119995167Y-127027177D01*
X120190909Y-127058180D01*
X120190912Y-127058180D01*
X120389088Y-127058180D01*
X120389091Y-127058180D01*
X120584833Y-127027177D01*
X120773315Y-126965936D01*
X120949896Y-126875963D01*
X121110229Y-126759475D01*
X121250365Y-126619339D01*
X121366853Y-126459006D01*
X121456826Y-126282425D01*
X121518067Y-126093943D01*
X121549070Y-125898201D01*
X121549070Y-124701799D01*
X121518067Y-124506057D01*
X121456826Y-124317575D01*
X121366853Y-124140994D01*
X121250365Y-123980661D01*
X121250362Y-123980658D01*
X121250360Y-123980655D01*
X121110234Y-123840529D01*
X121110231Y-123840527D01*
X121110229Y-123840525D01*
X120989536Y-123752837D01*
X120949899Y-123724039D01*
X120949898Y-123724038D01*
X120949896Y-123724037D01*
X120773315Y-123634064D01*
X120773312Y-123634063D01*
X120773310Y-123634062D01*
X120584837Y-123572824D01*
X120584835Y-123572823D01*
X120584833Y-123572823D01*
X120389091Y-123541820D01*
X120190909Y-123541820D01*
X119995167Y-123572823D01*
X119995165Y-123572823D01*
X119995162Y-123572824D01*
X119806689Y-123634062D01*
X119806683Y-123634065D01*
X119630100Y-123724039D01*
X119469768Y-123840527D01*
X119469765Y-123840529D01*
X119329639Y-123980655D01*
X119329637Y-123980658D01*
X119213145Y-124140995D01*
X119213145Y-124140996D01*
X119131985Y-124300280D01*
X119083237Y-124351895D01*
X119014322Y-124368961D01*
X118947121Y-124346060D01*
X118907452Y-124300279D01*
X118826425Y-124141254D01*
X118709982Y-123980984D01*
X118569905Y-123840907D01*
X118409638Y-123724466D01*
X118233124Y-123634528D01*
X118233118Y-123634525D01*
X118044721Y-123573311D01*
X118004000Y-123566861D01*
X118004000Y-124868857D01*
X117943140Y-124833720D01*
X117815876Y-124799620D01*
X117684124Y-124799620D01*
X117556860Y-124833720D01*
X117496000Y-124868857D01*
X117496000Y-123566861D01*
X117455278Y-123573311D01*
X117266881Y-123634525D01*
X117266875Y-123634528D01*
X117090361Y-123724466D01*
X116930094Y-123840907D01*
X116790017Y-123980984D01*
X116673576Y-124141251D01*
X116592547Y-124300280D01*
X116543799Y-124351895D01*
X116474884Y-124368961D01*
X116407682Y-124346060D01*
X116368014Y-124300281D01*
X116286853Y-124140994D01*
X116170365Y-123980661D01*
X116170362Y-123980658D01*
X116170360Y-123980655D01*
X116030234Y-123840529D01*
X116030231Y-123840527D01*
X116030229Y-123840525D01*
X115910951Y-123753865D01*
X115869894Y-123724035D01*
X115869890Y-123724033D01*
X115863489Y-123720771D01*
X115811877Y-123672019D01*
X115794700Y-123608509D01*
X115794700Y-122234380D01*
X115814702Y-122166259D01*
X115831605Y-122145285D01*
X121371870Y-116605020D01*
X121371876Y-116605014D01*
X121425823Y-116511575D01*
X121448853Y-116471686D01*
X121488700Y-116322977D01*
X121488700Y-104527023D01*
X121448853Y-104378314D01*
X121371876Y-104244986D01*
X121263014Y-104136124D01*
X120359014Y-103232124D01*
X120359012Y-103232123D01*
X120359010Y-103232121D01*
X120282556Y-103187981D01*
X120225686Y-103155147D01*
X120076977Y-103115300D01*
X120076975Y-103115300D01*
X117494381Y-103115300D01*
X117426260Y-103095298D01*
X117405286Y-103078395D01*
X117121605Y-102794714D01*
X117087579Y-102732402D01*
X117084700Y-102705619D01*
X117084700Y-102130242D01*
X117104702Y-102062121D01*
X117158358Y-102015628D01*
X117228632Y-102005524D01*
X117276847Y-102023001D01*
X117412474Y-102106657D01*
X117580678Y-102162393D01*
X117580681Y-102162394D01*
X117684483Y-102172999D01*
X117684483Y-102173000D01*
X117746000Y-102173000D01*
X117746000Y-101062189D01*
X117775884Y-101092073D01*
X117859115Y-101140126D01*
X117951947Y-101165000D01*
X118048053Y-101165000D01*
X118140885Y-101140126D01*
X118224116Y-101092073D01*
X118254000Y-101062189D01*
X118254000Y-102173000D01*
X118315517Y-102173000D01*
X118315516Y-102172999D01*
X118419318Y-102162394D01*
X118419321Y-102162393D01*
X118587525Y-102106657D01*
X118738339Y-102013634D01*
X118738345Y-102013629D01*
X118863629Y-101888345D01*
X118863634Y-101888339D01*
X118956657Y-101737525D01*
X119012393Y-101569321D01*
X119012394Y-101569318D01*
X119022999Y-101465516D01*
X119023000Y-101465516D01*
X119023000Y-101054000D01*
X118262189Y-101054000D01*
X118292073Y-101024116D01*
X118340126Y-100940885D01*
X118365000Y-100848053D01*
X118365000Y-100751947D01*
X118340126Y-100659115D01*
X118292073Y-100575884D01*
X118262189Y-100546000D01*
X119023000Y-100546000D01*
X119023000Y-100134483D01*
X119012394Y-100030681D01*
X119012393Y-100030678D01*
X118956657Y-99862474D01*
X118863634Y-99711660D01*
X118863629Y-99711654D01*
X118738345Y-99586370D01*
X118738339Y-99586365D01*
X118587525Y-99493342D01*
X118419321Y-99437606D01*
X118419318Y-99437605D01*
X118315516Y-99427000D01*
X118254000Y-99427000D01*
X118254000Y-100537811D01*
X118224116Y-100507927D01*
X118140885Y-100459874D01*
X118048053Y-100435000D01*
X117951947Y-100435000D01*
X117859115Y-100459874D01*
X117775884Y-100507927D01*
X117746000Y-100537811D01*
X117746000Y-99427000D01*
X117684483Y-99427000D01*
X117580681Y-99437605D01*
X117580678Y-99437606D01*
X117412474Y-99493342D01*
X117261660Y-99586365D01*
X117249889Y-99598136D01*
X117187576Y-99632159D01*
X117116760Y-99627092D01*
X117090794Y-99613803D01*
X116984809Y-99542986D01*
X116798547Y-99465834D01*
X116798544Y-99465833D01*
X116600809Y-99426500D01*
X116600806Y-99426500D01*
X116399194Y-99426500D01*
X116399190Y-99426500D01*
X116201455Y-99465833D01*
X116201452Y-99465834D01*
X116015191Y-99542986D01*
X115847557Y-99654995D01*
X115847551Y-99655000D01*
X115839095Y-99663457D01*
X115776783Y-99697483D01*
X115705968Y-99692418D01*
X115660905Y-99663457D01*
X115652448Y-99655000D01*
X115652442Y-99654995D01*
X115549730Y-99586365D01*
X115484809Y-99542986D01*
X115364957Y-99493342D01*
X115298547Y-99465834D01*
X115298544Y-99465833D01*
X115100809Y-99426500D01*
X115100806Y-99426500D01*
X114899194Y-99426500D01*
X114899190Y-99426500D01*
X114701455Y-99465833D01*
X114701452Y-99465834D01*
X114515191Y-99542986D01*
X114347557Y-99654995D01*
X114347551Y-99655000D01*
X114339095Y-99663457D01*
X114276783Y-99697483D01*
X114205968Y-99692418D01*
X114160905Y-99663457D01*
X114152448Y-99655000D01*
X114152442Y-99654995D01*
X114049730Y-99586365D01*
X113984809Y-99542986D01*
X113864957Y-99493342D01*
X113798547Y-99465834D01*
X113798544Y-99465833D01*
X113600809Y-99426500D01*
X113600806Y-99426500D01*
X113399194Y-99426500D01*
X113399190Y-99426500D01*
X113201455Y-99465833D01*
X113201452Y-99465834D01*
X113015191Y-99542986D01*
X112847557Y-99654995D01*
X112847551Y-99655000D01*
X112839095Y-99663457D01*
X112776783Y-99697483D01*
X112705968Y-99692418D01*
X112660905Y-99663457D01*
X112652448Y-99655000D01*
X112652442Y-99654995D01*
X112549730Y-99586365D01*
X112484809Y-99542986D01*
X112364957Y-99493342D01*
X112298547Y-99465834D01*
X112298544Y-99465833D01*
X112100809Y-99426500D01*
X112100806Y-99426500D01*
X111899194Y-99426500D01*
X111899190Y-99426500D01*
X111701455Y-99465833D01*
X111701452Y-99465834D01*
X111515191Y-99542986D01*
X111347557Y-99654995D01*
X111347551Y-99655000D01*
X111339095Y-99663457D01*
X111276783Y-99697483D01*
X111205968Y-99692418D01*
X111160905Y-99663457D01*
X111152448Y-99655000D01*
X111152442Y-99654995D01*
X111049730Y-99586365D01*
X110984809Y-99542986D01*
X110864957Y-99493342D01*
X110798547Y-99465834D01*
X110798544Y-99465833D01*
X110600809Y-99426500D01*
X110600806Y-99426500D01*
X110399194Y-99426500D01*
X110399190Y-99426500D01*
X110201455Y-99465833D01*
X110201452Y-99465834D01*
X110015191Y-99542986D01*
X109847557Y-99654995D01*
X109847551Y-99655000D01*
X109839095Y-99663457D01*
X109776783Y-99697483D01*
X109705968Y-99692418D01*
X109660905Y-99663457D01*
X109652448Y-99655000D01*
X109652442Y-99654995D01*
X109549730Y-99586365D01*
X109484809Y-99542986D01*
X109364957Y-99493342D01*
X109298547Y-99465834D01*
X109298544Y-99465833D01*
X109100809Y-99426500D01*
X109100806Y-99426500D01*
X108899194Y-99426500D01*
X108899190Y-99426500D01*
X108701455Y-99465833D01*
X108701452Y-99465834D01*
X108515191Y-99542986D01*
X108347557Y-99654995D01*
X108347551Y-99655000D01*
X108205000Y-99797551D01*
X108204995Y-99797557D01*
X108092986Y-99965191D01*
X108021606Y-100137518D01*
X107977058Y-100192799D01*
X107909694Y-100215220D01*
X107905197Y-100215300D01*
X106743023Y-100215300D01*
X106594314Y-100255147D01*
X106594312Y-100255147D01*
X106594308Y-100255149D01*
X106460988Y-100332121D01*
X106460978Y-100332129D01*
X101739401Y-105053706D01*
X101677089Y-105087732D01*
X101606274Y-105082667D01*
X101549438Y-105040120D01*
X101525586Y-104976852D01*
X101525274Y-104976902D01*
X101525033Y-104975386D01*
X101524693Y-104974482D01*
X101524500Y-104972029D01*
X101524500Y-104972013D01*
X101490715Y-104758699D01*
X101423975Y-104553296D01*
X101325925Y-104360863D01*
X101198979Y-104186137D01*
X101198976Y-104186134D01*
X101198974Y-104186131D01*
X101046268Y-104033425D01*
X101046265Y-104033423D01*
X101046264Y-104033422D01*
X101046263Y-104033421D01*
X100879052Y-103911935D01*
X100835699Y-103855714D01*
X100829624Y-103784978D01*
X100862755Y-103722186D01*
X100879053Y-103708064D01*
X101046263Y-103586579D01*
X101198979Y-103433863D01*
X101325925Y-103259137D01*
X101423975Y-103066704D01*
X101490715Y-102861301D01*
X101524500Y-102647987D01*
X101524500Y-102432013D01*
X101490715Y-102218699D01*
X101423975Y-102013296D01*
X101325925Y-101820863D01*
X101198979Y-101646137D01*
X101198976Y-101646134D01*
X101198974Y-101646131D01*
X101113237Y-101560394D01*
X101079211Y-101498082D01*
X101084276Y-101427267D01*
X101126823Y-101370431D01*
X101158293Y-101353246D01*
X101262204Y-101314489D01*
X101379261Y-101226861D01*
X101466889Y-101109804D01*
X101517989Y-100972801D01*
X101521421Y-100940885D01*
X101524499Y-100912249D01*
X101524500Y-100912232D01*
X101524500Y-99087767D01*
X101524499Y-99087750D01*
X123875500Y-99087750D01*
X123875500Y-100912249D01*
X123882009Y-100972796D01*
X123882011Y-100972804D01*
X123933110Y-101109802D01*
X123933112Y-101109807D01*
X124020738Y-101226861D01*
X124137792Y-101314487D01*
X124137794Y-101314488D01*
X124137796Y-101314489D01*
X124186974Y-101332831D01*
X124241700Y-101353244D01*
X124298536Y-101395791D01*
X124323346Y-101462311D01*
X124308254Y-101531685D01*
X124286763Y-101560394D01*
X124201021Y-101646136D01*
X124074077Y-101820859D01*
X123976024Y-102013297D01*
X123909285Y-102218696D01*
X123909285Y-102218699D01*
X123876789Y-102423878D01*
X123875500Y-102432015D01*
X123875500Y-102647984D01*
X123909285Y-102861303D01*
X123976024Y-103066702D01*
X123976025Y-103066704D01*
X124074075Y-103259137D01*
X124201021Y-103433863D01*
X124201023Y-103433865D01*
X124201025Y-103433868D01*
X124353734Y-103586577D01*
X124520946Y-103708064D01*
X124564300Y-103764287D01*
X124570375Y-103835023D01*
X124537243Y-103897814D01*
X124520946Y-103911936D01*
X124353734Y-104033422D01*
X124201025Y-104186131D01*
X124201023Y-104186134D01*
X124074077Y-104360859D01*
X123976024Y-104553297D01*
X123909285Y-104758696D01*
X123909285Y-104758699D01*
X123875502Y-104972004D01*
X123875500Y-104972015D01*
X123875500Y-105187984D01*
X123909285Y-105401303D01*
X123976024Y-105606702D01*
X123976025Y-105606704D01*
X124074075Y-105799137D01*
X124201021Y-105973863D01*
X124201023Y-105973865D01*
X124201025Y-105973868D01*
X124353734Y-106126577D01*
X124520946Y-106248064D01*
X124564300Y-106304287D01*
X124570375Y-106375023D01*
X124537243Y-106437814D01*
X124520946Y-106451936D01*
X124353734Y-106573422D01*
X124201025Y-106726131D01*
X124201023Y-106726134D01*
X124074077Y-106900859D01*
X123976024Y-107093297D01*
X123909285Y-107298696D01*
X123875500Y-107512015D01*
X123875500Y-107727984D01*
X123909285Y-107941303D01*
X123976024Y-108146702D01*
X123976025Y-108146704D01*
X124074075Y-108339137D01*
X124201021Y-108513863D01*
X124201023Y-108513865D01*
X124201025Y-108513868D01*
X124353734Y-108666577D01*
X124520946Y-108788064D01*
X124564300Y-108844287D01*
X124570375Y-108915023D01*
X124537243Y-108977814D01*
X124520946Y-108991936D01*
X124353734Y-109113422D01*
X124201025Y-109266131D01*
X124201023Y-109266134D01*
X124074077Y-109440859D01*
X123976024Y-109633297D01*
X123909285Y-109838696D01*
X123909285Y-109838699D01*
X123875502Y-110052004D01*
X123875500Y-110052015D01*
X123875500Y-110267984D01*
X123909285Y-110481303D01*
X123976024Y-110686702D01*
X123976025Y-110686704D01*
X124074075Y-110879137D01*
X124201021Y-111053863D01*
X124201023Y-111053865D01*
X124201025Y-111053868D01*
X124353734Y-111206577D01*
X124520946Y-111328064D01*
X124564300Y-111384287D01*
X124570375Y-111455023D01*
X124537243Y-111517814D01*
X124520946Y-111531936D01*
X124353734Y-111653422D01*
X124201025Y-111806131D01*
X124201023Y-111806134D01*
X124074077Y-111980859D01*
X123976024Y-112173297D01*
X123909285Y-112378696D01*
X123875500Y-112592015D01*
X123875500Y-112807984D01*
X123909285Y-113021303D01*
X123976024Y-113226702D01*
X123976025Y-113226704D01*
X124074075Y-113419137D01*
X124201021Y-113593863D01*
X124201023Y-113593865D01*
X124201025Y-113593868D01*
X124353734Y-113746577D01*
X124520946Y-113868064D01*
X124564300Y-113924287D01*
X124570375Y-113995023D01*
X124537243Y-114057814D01*
X124520946Y-114071936D01*
X124353734Y-114193422D01*
X124201025Y-114346131D01*
X124201023Y-114346134D01*
X124074077Y-114520859D01*
X123976024Y-114713297D01*
X123909285Y-114918696D01*
X123875500Y-115132015D01*
X123875500Y-115347984D01*
X123909285Y-115561303D01*
X123976024Y-115766702D01*
X123976025Y-115766704D01*
X124074075Y-115959137D01*
X124201021Y-116133863D01*
X124201023Y-116133865D01*
X124201025Y-116133868D01*
X124353734Y-116286577D01*
X124520946Y-116408064D01*
X124564300Y-116464287D01*
X124570375Y-116535023D01*
X124537243Y-116597814D01*
X124520946Y-116611936D01*
X124353734Y-116733422D01*
X124201025Y-116886131D01*
X124201023Y-116886134D01*
X124074077Y-117060859D01*
X123976024Y-117253297D01*
X123909285Y-117458696D01*
X123875500Y-117672015D01*
X123875500Y-117887984D01*
X123909285Y-118101303D01*
X123976024Y-118306702D01*
X123976025Y-118306704D01*
X124074075Y-118499137D01*
X124201021Y-118673863D01*
X124201023Y-118673865D01*
X124201025Y-118673868D01*
X124353734Y-118826577D01*
X124520946Y-118948064D01*
X124564300Y-119004287D01*
X124570375Y-119075023D01*
X124537243Y-119137814D01*
X124520946Y-119151936D01*
X124353734Y-119273422D01*
X124201025Y-119426131D01*
X124201023Y-119426134D01*
X124074077Y-119600859D01*
X123976024Y-119793297D01*
X123909285Y-119998696D01*
X123875500Y-120212015D01*
X123875500Y-120427984D01*
X123909285Y-120641303D01*
X123976024Y-120846702D01*
X123976025Y-120846704D01*
X124074075Y-121039137D01*
X124201021Y-121213863D01*
X124201023Y-121213865D01*
X124201025Y-121213868D01*
X124353734Y-121366577D01*
X124520946Y-121488064D01*
X124564300Y-121544287D01*
X124570375Y-121615023D01*
X124537243Y-121677814D01*
X124520946Y-121691936D01*
X124353734Y-121813422D01*
X124201025Y-121966131D01*
X124201023Y-121966134D01*
X124074077Y-122140859D01*
X123976024Y-122333297D01*
X123909285Y-122538696D01*
X123875500Y-122752015D01*
X123875500Y-122967984D01*
X123909285Y-123181303D01*
X123976024Y-123386702D01*
X123976025Y-123386704D01*
X124074075Y-123579137D01*
X124201021Y-123753863D01*
X124201023Y-123753865D01*
X124201025Y-123753868D01*
X124353734Y-123906577D01*
X124520946Y-124028064D01*
X124564300Y-124084287D01*
X124570375Y-124155023D01*
X124537243Y-124217814D01*
X124520946Y-124231936D01*
X124353734Y-124353422D01*
X124201025Y-124506131D01*
X124201023Y-124506134D01*
X124074077Y-124680859D01*
X123976024Y-124873297D01*
X123909285Y-125078696D01*
X123875500Y-125292015D01*
X123875500Y-125507984D01*
X123909285Y-125721303D01*
X123976024Y-125926702D01*
X123976025Y-125926704D01*
X124074075Y-126119137D01*
X124201021Y-126293863D01*
X124201023Y-126293865D01*
X124201025Y-126293868D01*
X124353734Y-126446577D01*
X124520946Y-126568064D01*
X124564300Y-126624287D01*
X124570375Y-126695023D01*
X124537243Y-126757814D01*
X124520946Y-126771936D01*
X124353734Y-126893422D01*
X124201025Y-127046131D01*
X124201023Y-127046134D01*
X124074077Y-127220859D01*
X123976024Y-127413297D01*
X123909285Y-127618696D01*
X123875500Y-127832015D01*
X123875500Y-128047984D01*
X123909285Y-128261303D01*
X123976024Y-128466702D01*
X123976025Y-128466704D01*
X124074075Y-128659137D01*
X124201021Y-128833863D01*
X124201023Y-128833865D01*
X124201025Y-128833868D01*
X124353734Y-128986577D01*
X124520946Y-129108064D01*
X124564300Y-129164287D01*
X124570375Y-129235023D01*
X124537243Y-129297814D01*
X124520946Y-129311936D01*
X124353734Y-129433422D01*
X124201025Y-129586131D01*
X124201023Y-129586134D01*
X124074077Y-129760859D01*
X123976024Y-129953297D01*
X123909285Y-130158696D01*
X123875500Y-130372015D01*
X123875500Y-130587984D01*
X123909285Y-130801303D01*
X123976024Y-131006702D01*
X123976025Y-131006704D01*
X124074075Y-131199137D01*
X124201021Y-131373863D01*
X124201023Y-131373865D01*
X124201025Y-131373868D01*
X124353734Y-131526577D01*
X124521371Y-131648373D01*
X124564725Y-131704596D01*
X124570800Y-131775332D01*
X124537668Y-131838123D01*
X124521371Y-131852245D01*
X124354060Y-131973803D01*
X124201406Y-132126457D01*
X124201404Y-132126460D01*
X124074505Y-132301121D01*
X123976490Y-132493486D01*
X123976487Y-132493492D01*
X123909775Y-132698809D01*
X123899133Y-132766000D01*
X124960058Y-132766000D01*
X124926619Y-132823919D01*
X124892000Y-132953120D01*
X124892000Y-133086880D01*
X124926619Y-133216081D01*
X124960058Y-133274000D01*
X123899133Y-133274000D01*
X123909775Y-133341190D01*
X123976487Y-133546507D01*
X123976490Y-133546513D01*
X124074505Y-133738878D01*
X124201404Y-133913539D01*
X124201406Y-133913542D01*
X124354057Y-134066193D01*
X124354060Y-134066195D01*
X124521371Y-134187754D01*
X124564725Y-134243976D01*
X124570800Y-134314712D01*
X124537669Y-134377504D01*
X124521372Y-134391626D01*
X124353730Y-134513426D01*
X124201025Y-134666131D01*
X124201023Y-134666134D01*
X124074077Y-134840859D01*
X123976024Y-135033297D01*
X123909285Y-135238696D01*
X123898149Y-135309011D01*
X123883726Y-135400079D01*
X123875500Y-135452015D01*
X123875500Y-135667984D01*
X123909285Y-135881303D01*
X123976024Y-136086702D01*
X123976025Y-136086704D01*
X124074075Y-136279137D01*
X124201021Y-136453863D01*
X124201023Y-136453865D01*
X124201025Y-136453868D01*
X124353731Y-136606574D01*
X124353734Y-136606576D01*
X124353737Y-136606579D01*
X124528463Y-136733525D01*
X124720896Y-136831575D01*
X124926299Y-136898315D01*
X125139613Y-136932100D01*
X125139615Y-136932100D01*
X125660385Y-136932100D01*
X125660387Y-136932100D01*
X125873701Y-136898315D01*
X126079104Y-136831575D01*
X126271537Y-136733525D01*
X126446263Y-136606579D01*
X126598979Y-136453863D01*
X126725925Y-136279137D01*
X126823975Y-136086704D01*
X126890715Y-135881301D01*
X126924500Y-135667987D01*
X126924500Y-135452013D01*
X126890715Y-135238699D01*
X126823975Y-135033296D01*
X126725925Y-134840863D01*
X126598979Y-134666137D01*
X126598976Y-134666134D01*
X126598974Y-134666131D01*
X126446265Y-134513422D01*
X126278628Y-134391626D01*
X126235274Y-134335403D01*
X126229199Y-134264667D01*
X126262331Y-134201875D01*
X126278628Y-134187754D01*
X126445939Y-134066195D01*
X126445942Y-134066193D01*
X126598593Y-133913542D01*
X126598595Y-133913539D01*
X126725494Y-133738878D01*
X126823509Y-133546513D01*
X126823512Y-133546507D01*
X126890224Y-133341190D01*
X126900867Y-133274000D01*
X125839942Y-133274000D01*
X125873381Y-133216081D01*
X125908000Y-133086880D01*
X125908000Y-132953120D01*
X125873381Y-132823919D01*
X125839942Y-132766000D01*
X126900866Y-132766000D01*
X126890224Y-132698809D01*
X126823512Y-132493492D01*
X126823509Y-132493486D01*
X126725494Y-132301121D01*
X126598595Y-132126460D01*
X126598593Y-132126457D01*
X126445942Y-131973806D01*
X126445939Y-131973804D01*
X126278628Y-131852245D01*
X126235274Y-131796023D01*
X126229199Y-131725287D01*
X126262330Y-131662495D01*
X126278628Y-131648373D01*
X126446263Y-131526579D01*
X126598979Y-131373863D01*
X126725925Y-131199137D01*
X126823975Y-131006704D01*
X126890715Y-130801301D01*
X126924500Y-130587987D01*
X126924500Y-130372013D01*
X126890715Y-130158699D01*
X126823975Y-129953296D01*
X126725925Y-129760863D01*
X126598979Y-129586137D01*
X126598976Y-129586134D01*
X126598974Y-129586131D01*
X126446268Y-129433425D01*
X126446265Y-129433423D01*
X126446264Y-129433422D01*
X126446263Y-129433421D01*
X126279052Y-129311935D01*
X126235699Y-129255714D01*
X126229624Y-129184978D01*
X126262755Y-129122186D01*
X126279053Y-129108064D01*
X126446263Y-128986579D01*
X126598979Y-128833863D01*
X126725925Y-128659137D01*
X126823975Y-128466704D01*
X126890715Y-128261301D01*
X126924500Y-128047987D01*
X126924500Y-127832013D01*
X126890715Y-127618699D01*
X126823975Y-127413296D01*
X126725925Y-127220863D01*
X126598979Y-127046137D01*
X126598976Y-127046134D01*
X126598974Y-127046131D01*
X126446268Y-126893425D01*
X126446265Y-126893423D01*
X126446264Y-126893422D01*
X126446263Y-126893421D01*
X126279052Y-126771935D01*
X126235699Y-126715714D01*
X126229624Y-126644978D01*
X126262755Y-126582186D01*
X126279053Y-126568064D01*
X126446263Y-126446579D01*
X126598979Y-126293863D01*
X126725925Y-126119137D01*
X126823975Y-125926704D01*
X126890715Y-125721301D01*
X126924500Y-125507987D01*
X126924500Y-125292013D01*
X126890715Y-125078699D01*
X126823975Y-124873296D01*
X126725925Y-124680863D01*
X126598979Y-124506137D01*
X126598976Y-124506134D01*
X126598974Y-124506131D01*
X126446268Y-124353425D01*
X126446265Y-124353423D01*
X126446264Y-124353422D01*
X126446263Y-124353421D01*
X126279052Y-124231935D01*
X126235699Y-124175714D01*
X126229624Y-124104978D01*
X126262755Y-124042186D01*
X126279053Y-124028064D01*
X126446263Y-123906579D01*
X126598979Y-123753863D01*
X126725925Y-123579137D01*
X126823975Y-123386704D01*
X126890715Y-123181301D01*
X126924500Y-122967987D01*
X126924500Y-122752013D01*
X126890715Y-122538699D01*
X126823975Y-122333296D01*
X126725925Y-122140863D01*
X126598979Y-121966137D01*
X126598976Y-121966134D01*
X126598974Y-121966131D01*
X126446268Y-121813425D01*
X126446265Y-121813423D01*
X126446264Y-121813422D01*
X126446263Y-121813421D01*
X126279052Y-121691935D01*
X126235699Y-121635714D01*
X126229624Y-121564978D01*
X126262755Y-121502186D01*
X126279053Y-121488064D01*
X126446263Y-121366579D01*
X126598979Y-121213863D01*
X126725925Y-121039137D01*
X126823975Y-120846704D01*
X126890715Y-120641301D01*
X126924500Y-120427987D01*
X126924500Y-120212013D01*
X126890715Y-119998699D01*
X126823975Y-119793296D01*
X126725925Y-119600863D01*
X126598979Y-119426137D01*
X126598976Y-119426134D01*
X126598974Y-119426131D01*
X126446268Y-119273425D01*
X126446265Y-119273423D01*
X126446264Y-119273422D01*
X126446263Y-119273421D01*
X126279052Y-119151935D01*
X126235699Y-119095714D01*
X126229624Y-119024978D01*
X126262755Y-118962186D01*
X126279053Y-118948064D01*
X126446263Y-118826579D01*
X126598979Y-118673863D01*
X126725925Y-118499137D01*
X126823975Y-118306704D01*
X126890715Y-118101301D01*
X126924500Y-117887987D01*
X126924500Y-117672013D01*
X126890715Y-117458699D01*
X126823975Y-117253296D01*
X126725925Y-117060863D01*
X126598979Y-116886137D01*
X126598976Y-116886134D01*
X126598974Y-116886131D01*
X126446268Y-116733425D01*
X126446265Y-116733423D01*
X126446264Y-116733422D01*
X126446263Y-116733421D01*
X126279052Y-116611935D01*
X126235699Y-116555714D01*
X126229624Y-116484978D01*
X126262755Y-116422186D01*
X126279053Y-116408064D01*
X126446263Y-116286579D01*
X126598979Y-116133863D01*
X126725925Y-115959137D01*
X126823975Y-115766704D01*
X126890715Y-115561301D01*
X126924500Y-115347987D01*
X126924500Y-115132013D01*
X126890715Y-114918699D01*
X126823975Y-114713296D01*
X126725925Y-114520863D01*
X126598979Y-114346137D01*
X126598976Y-114346134D01*
X126598974Y-114346131D01*
X126446268Y-114193425D01*
X126446265Y-114193423D01*
X126446264Y-114193422D01*
X126446263Y-114193421D01*
X126279052Y-114071935D01*
X126235699Y-114015714D01*
X126229624Y-113944978D01*
X126262755Y-113882186D01*
X126279053Y-113868064D01*
X126446263Y-113746579D01*
X126598979Y-113593863D01*
X126725925Y-113419137D01*
X126823975Y-113226704D01*
X126890715Y-113021301D01*
X126924500Y-112807987D01*
X126924500Y-112592013D01*
X126890715Y-112378699D01*
X126823975Y-112173296D01*
X126725925Y-111980863D01*
X126598979Y-111806137D01*
X126598976Y-111806134D01*
X126598974Y-111806131D01*
X126446268Y-111653425D01*
X126446265Y-111653423D01*
X126446264Y-111653422D01*
X126446263Y-111653421D01*
X126279052Y-111531935D01*
X126235699Y-111475714D01*
X126229624Y-111404978D01*
X126262755Y-111342186D01*
X126279053Y-111328064D01*
X126446263Y-111206579D01*
X126598979Y-111053863D01*
X126725925Y-110879137D01*
X126823975Y-110686704D01*
X126890715Y-110481301D01*
X126924500Y-110267987D01*
X126924500Y-110052013D01*
X126890715Y-109838699D01*
X126823975Y-109633296D01*
X126725925Y-109440863D01*
X126598979Y-109266137D01*
X126598976Y-109266134D01*
X126598974Y-109266131D01*
X126446268Y-109113425D01*
X126446265Y-109113423D01*
X126446264Y-109113422D01*
X126446263Y-109113421D01*
X126279052Y-108991935D01*
X126235699Y-108935714D01*
X126229624Y-108864978D01*
X126262755Y-108802186D01*
X126279053Y-108788064D01*
X126446263Y-108666579D01*
X126598979Y-108513863D01*
X126725925Y-108339137D01*
X126823975Y-108146704D01*
X126890715Y-107941301D01*
X126924500Y-107727987D01*
X126924500Y-107512013D01*
X126890715Y-107298699D01*
X126823975Y-107093296D01*
X126725925Y-106900863D01*
X126598979Y-106726137D01*
X126598976Y-106726134D01*
X126598974Y-106726131D01*
X126446268Y-106573425D01*
X126446265Y-106573423D01*
X126446264Y-106573422D01*
X126446263Y-106573421D01*
X126279052Y-106451935D01*
X126235699Y-106395714D01*
X126229624Y-106324978D01*
X126262755Y-106262186D01*
X126279053Y-106248064D01*
X126446263Y-106126579D01*
X126598979Y-105973863D01*
X126725925Y-105799137D01*
X126823975Y-105606704D01*
X126890715Y-105401301D01*
X126924500Y-105187987D01*
X126924500Y-104972013D01*
X126890715Y-104758699D01*
X126823975Y-104553296D01*
X126725925Y-104360863D01*
X126598979Y-104186137D01*
X126598976Y-104186134D01*
X126598974Y-104186131D01*
X126446268Y-104033425D01*
X126446265Y-104033423D01*
X126446264Y-104033422D01*
X126446263Y-104033421D01*
X126279052Y-103911935D01*
X126235699Y-103855714D01*
X126229624Y-103784978D01*
X126262755Y-103722186D01*
X126279053Y-103708064D01*
X126446263Y-103586579D01*
X126598979Y-103433863D01*
X126725925Y-103259137D01*
X126823975Y-103066704D01*
X126890715Y-102861301D01*
X126924500Y-102647987D01*
X126924500Y-102432013D01*
X126890715Y-102218699D01*
X126823975Y-102013296D01*
X126725925Y-101820863D01*
X126598979Y-101646137D01*
X126598976Y-101646134D01*
X126598974Y-101646131D01*
X126513237Y-101560394D01*
X126479211Y-101498082D01*
X126484276Y-101427267D01*
X126526823Y-101370431D01*
X126558293Y-101353246D01*
X126662204Y-101314489D01*
X126779261Y-101226861D01*
X126866889Y-101109804D01*
X126917989Y-100972801D01*
X126921421Y-100940885D01*
X126924499Y-100912249D01*
X126924500Y-100912232D01*
X126924500Y-99087767D01*
X126924499Y-99087750D01*
X126917990Y-99027203D01*
X126917988Y-99027195D01*
X126866889Y-98890197D01*
X126866887Y-98890192D01*
X126779261Y-98773138D01*
X126662207Y-98685512D01*
X126662202Y-98685510D01*
X126525204Y-98634411D01*
X126525196Y-98634409D01*
X126464649Y-98627900D01*
X126464638Y-98627900D01*
X124335362Y-98627900D01*
X124335350Y-98627900D01*
X124274803Y-98634409D01*
X124274795Y-98634411D01*
X124137797Y-98685510D01*
X124137792Y-98685512D01*
X124020738Y-98773138D01*
X123933112Y-98890192D01*
X123933110Y-98890197D01*
X123882011Y-99027195D01*
X123882009Y-99027203D01*
X123875500Y-99087750D01*
X101524499Y-99087750D01*
X101517990Y-99027203D01*
X101517988Y-99027195D01*
X101466889Y-98890197D01*
X101466887Y-98890192D01*
X101379261Y-98773138D01*
X101262207Y-98685512D01*
X101262202Y-98685510D01*
X101125204Y-98634411D01*
X101125196Y-98634409D01*
X101064649Y-98627900D01*
X101064638Y-98627900D01*
X98935362Y-98627900D01*
X98935350Y-98627900D01*
X98874803Y-98634409D01*
X98874795Y-98634411D01*
X98737797Y-98685510D01*
X98737792Y-98685512D01*
X98620738Y-98773138D01*
X98533112Y-98890192D01*
X98533110Y-98890197D01*
X98482011Y-99027195D01*
X98482009Y-99027203D01*
X98475500Y-99087750D01*
X98025500Y-99087750D01*
X98025500Y-98151500D01*
X98045502Y-98083379D01*
X98099158Y-98036886D01*
X98151500Y-98025500D01*
X127098500Y-98025500D01*
X127166621Y-98045502D01*
G37*
%TD.AperFunction*%
%TD*%
M02*
